<?xml version="1.0" standalone="no"?>
<!DOCTYPE svg PUBLIC "-//W3C//DTD SVG 20010904//EN"
 "http://www.w3.org/TR/2001/REC-SVG-20010904/DTD/svg10.dtd">
<svg version="1.0" xmlns="http://www.w3.org/2000/svg"
 width="896.000000pt" height="1152.000000pt" viewBox="0 0 896.000000 1152.000000"
 preserveAspectRatio="xMidYMid meet">

<g transform="translate(0.000000,1152.000000) scale(0.100000,-0.100000)"
fill="#000000" stroke="none">
<path d="M0 11062 l0 -459 148 -75 c207 -105 513 -263 602 -311 115 -61 468
-245 630 -329 80 -41 154 -79 165 -86 11 -6 54 -27 95 -48 41 -20 118 -62 170
-92 52 -30 138 -77 190 -104 176 -93 225 -119 285 -153 33 -18 94 -50 135 -71
41 -20 87 -45 102 -56 23 -16 85 -49 226 -122 21 -10 54 -29 75 -42 l37 -24 0
-85 c0 -46 -4 -86 -8 -89 -5 -3 -30 6 -55 20 -53 28 -60 18 -23 -30 20 -26 24
-43 24 -110 1 -43 4 -81 7 -84 3 -3 5 14 5 38 0 24 3 40 7 37 3 -4 8 -57 9
-117 4 -138 6 -146 49 -154 19 -4 42 -14 50 -23 39 -39 -54 -62 -111 -28 -17
10 -22 11 -11 2 18 -15 23 -63 8 -86 -6 -10 -5 -24 3 -40 8 -16 12 -55 11
-103 -3 -73 -2 -77 21 -85 13 -4 106 -5 206 -1 101 4 431 12 733 17 303 6 709
16 904 21 195 6 363 7 375 4 12 -4 53 -31 93 -60 39 -30 76 -54 81 -54 4 0 19
-11 32 -25 13 -14 55 -46 94 -72 100 -67 115 -84 114 -135 0 -47 -22 -93 -40
-82 -7 4 -8 -3 -4 -22 3 -16 7 -51 8 -77 1 -27 6 -51 11 -54 5 -3 110 -5 232
-4 240 2 249 1 324 -54 30 -22 41 -24 83 -19 52 7 118 -12 170 -48 16 -11 33
-16 39 -12 6 3 14 2 18 -3 3 -5 30 -26 60 -46 30 -20 67 -55 82 -77 19 -29 28
-36 33 -25 3 9 18 15 36 15 16 0 30 5 30 11 0 6 13 -2 29 -17 20 -18 31 -41
36 -70 3 -24 11 -46 16 -50 13 -8 46 22 55 49 8 25 20 37 56 56 15 8 28 23 30
35 2 14 19 28 51 43 26 13 47 27 47 33 0 5 6 10 14 10 7 0 19 6 25 13 6 8 35
22 66 32 30 11 55 22 55 26 0 17 214 30 275 17 17 -3 47 -7 68 -7 22 -1 36 -5
32 -11 -3 -5 0 -7 8 -4 8 3 26 -6 40 -20 15 -14 33 -26 42 -26 8 0 15 -4 15
-9 0 -15 110 -22 176 -10 35 6 64 14 64 18 0 4 23 15 51 25 40 15 65 17 122
11 116 -11 162 -26 319 -106 23 -11 26 19 33 295 6 222 14 263 45 250 29 -11
33 -9 40 23 8 37 -4 67 -15 34 -13 -43 -77 -52 -90 -11 -3 10 3 33 15 52 11
18 20 43 20 55 0 12 9 28 21 36 15 11 17 16 7 20 -10 4 -10 6 0 6 6 1 12 9 12
19 0 10 7 27 15 39 8 11 17 39 21 62 4 23 14 47 23 54 9 7 17 19 19 27 3 17 8
30 50 120 17 36 38 88 48 115 9 28 21 55 25 60 4 6 24 53 44 105 20 52 41 100
45 105 5 6 18 39 30 75 12 36 37 97 56 137 19 40 34 76 34 81 0 9 76 196 101
247 12 26 20 30 62 33 l47 3 0 1045 0 1044 -3466 0 -3466 0 32 -26 c17 -15 37
-42 45 -60 8 -19 21 -34 29 -34 18 0 39 -34 28 -45 -4 -4 3 -3 14 3 19 10 30
3 93 -57 39 -37 71 -71 71 -76 0 -10 16 -22 100 -79 36 -24 97 -76 136 -115
40 -39 77 -71 84 -71 6 0 8 -4 5 -10 -3 -5 1 -10 9 -10 9 0 16 -4 16 -10 0 -5
5 -10 11 -10 6 0 17 -7 25 -15 9 -8 13 -15 9 -15 -3 0 22 -21 57 -47 34 -27
68 -59 74 -72 17 -33 19 -271 3 -271 -7 0 -33 18 -58 41 -25 22 -104 87 -176
145 -71 58 -139 113 -150 122 -11 10 -47 40 -80 67 -33 28 -62 53 -65 56 -3 3
-28 24 -56 45 -118 90 -354 286 -354 294 0 4 -21 22 -47 39 -27 17 -65 46 -85
65 -21 19 -38 32 -38 29 0 -3 -7 0 -15 7 -8 7 -13 16 -10 20 2 4 -12 16 -31
26 -20 10 -40 29 -45 42 -9 22 -9 22 -254 22 l-246 0 3 -215 c2 -118 0 -215
-3 -215 -20 0 -43 51 -70 151 -17 63 -35 122 -40 132 -6 10 -7 28 -3 39 3 11
2 18 -3 15 -5 -3 -15 14 -22 39 -7 24 -17 47 -22 50 -5 3 -9 -65 -9 -155 0
-89 -4 -161 -8 -161 -22 0 -32 59 -32 185 l0 135 -95 0 -95 0 0 -35 c0 -20 6
-51 14 -70 9 -21 11 -37 5 -40 -17 -11 -39 23 -39 59 0 19 -5 47 -12 61 -9 20
-18 25 -50 25 -36 0 -38 -2 -38 -30 0 -16 -4 -30 -10 -30 -5 0 -10 8 -10 18 0
40 -13 42 -322 42 l-298 0 0 -458z m800 298 c0 -5 -5 -10 -11 -10 -5 0 -7 5
-4 10 3 6 8 10 11 10 2 0 4 -4 4 -10z m494 -48 c23 -32 31 -56 34 -102 5 -68
-5 -76 -52 -39 -28 22 -70 19 -48 -3 7 -7 12 -22 12 -34 0 -32 37 -74 66 -74
20 0 24 -5 24 -30 0 -26 -3 -30 -29 -30 -65 0 -106 101 -100 246 6 123 37 145
93 66z m143 -96 l37 -34 2 -140 c1 -77 -2 -145 -6 -152 -10 -16 -75 32 -95 69
-21 41 -27 243 -9 270 20 28 28 27 71 -13z m-943 -85 c2 -31 2 -46 0 -34 -3
12 -12 27 -20 33 -15 13 -18 49 -7 90 l7 25 7 -29 c4 -15 10 -53 13 -85z
m5246 74 c0 -8 -9 -15 -20 -15 -11 0 -20 7 -20 15 0 8 9 15 20 15 11 0 20 -7
20 -15z m-5174 -91 c-16 -30 -21 -17 -10 24 4 15 10 20 16 14 6 -6 4 -20 -6
-38z m975 -159 c1 -256 3 -235 -25 -235 -18 0 -27 8 -34 30 -9 26 -8 31 9 40
18 10 19 23 19 192 0 162 2 181 15 167 12 -12 15 -49 16 -194z m72 8 c3 -71 9
-145 13 -165 5 -31 3 -38 -10 -38 -33 0 -39 31 -37 213 1 93 4 117 15 117 11
0 15 -28 19 -127z m161 111 c3 -9 6 -45 6 -80 0 -63 1 -65 30 -75 39 -14 46
-43 45 -189 0 -95 -3 -115 -15 -115 -12 0 -16 22 -20 119 -3 81 -9 121 -17
123 -16 6 -22 -25 -25 -126 -3 -77 -4 -83 -19 -69 -23 23 -28 428 -6 428 8 0
18 -7 21 -16z m-75 -65 c9 -30 9 -44 1 -54 -15 -19 -8 -170 10 -212 8 -18 11
-36 7 -40 -15 -14 -47 33 -56 83 -8 39 -15 212 -12 257 1 4 9 7 19 7 13 0 23
-12 31 -41z m-1041 19 c18 -18 14 -30 -7 -19 -10 6 -21 7 -25 4 -3 -3 -6 1 -6
10 0 20 21 22 38 5z m62 -50 c0 -5 -4 -8 -10 -8 -5 0 -10 10 -10 23 0 18 2 19
10 7 5 -8 10 -18 10 -22z m-90 -8 c0 -5 9 -10 20 -10 11 0 20 -7 20 -14 0 -12
-6 -13 -30 -5 -28 10 -43 39 -20 39 6 0 10 -4 10 -10z m140 -5 c0 -8 -4 -15
-10 -15 -5 0 -10 7 -10 15 0 8 5 15 10 15 6 0 10 -7 10 -15z m-190 -19 c0 -14
-4 -28 -10 -31 -6 -4 -10 7 -10 24 0 17 5 31 10 31 6 0 10 -11 10 -24z m50
-56 c6 -11 9 -20 7 -20 -2 0 -12 9 -22 20 -10 11 -13 20 -7 20 6 0 16 -9 22
-20z m200 -55 c22 -3 50 -19 51 -28 0 -7 5 -1 11 13 l10 25 9 -24 c8 -20 11
-22 27 -10 16 13 16 12 0 -7 -19 -21 -23 -43 -10 -45 4 -1 16 -3 27 -4 11 -2
32 -6 46 -10 18 -4 31 -1 43 10 9 10 20 14 24 10 4 -4 1 -10 -5 -12 -9 -3 -11
-14 -7 -30 6 -21 4 -24 -7 -18 -8 5 -2 -3 14 -18 15 -15 27 -37 27 -52 0 -28
8 -32 24 -10 6 8 22 16 36 17 24 3 25 1 28 -59 2 -35 1 -63 -2 -63 -20 0 -56
22 -56 35 0 9 -4 14 -9 10 -5 -3 -11 2 -13 10 -2 12 -9 10 -31 -9 -32 -28 -86
-40 -130 -30 -18 4 -39 8 -47 9 -29 4 -65 24 -93 50 -35 34 -77 40 -152 24
-33 -7 -84 -12 -114 -11 -62 2 -77 -7 -86 -49 -8 -33 -40 -52 -67 -38 -10 6
-14 16 -11 29 3 11 0 26 -6 34 -8 10 -6 19 12 38 18 20 43 29 113 42 158 29
157 28 190 97 16 36 30 55 32 45 2 -9 11 -16 20 -16 13 0 14 2 4 9 -11 7 -10
9 3 15 9 3 13 10 10 16 -3 5 -1 10 4 10 6 0 11 -4 11 -9 0 -5 9 -7 20 -4 11 3
20 10 20 15 0 5 6 6 13 1 6 -4 14 -8 17 -8z m135 -45 c-3 -5 -12 -10 -18 -10
-7 0 -6 4 3 10 19 12 23 12 15 0z m204 -96 c3 -18 2 -18 -16 -1 -11 9 -25 17
-32 17 -7 0 -10 4 -6 10 9 14 50 -5 54 -26z m92 -61 c17 -20 18 -23 3 -10 -26
21 -33 21 -50 0 -12 -16 -13 -15 -14 10 0 36 28 36 61 0z m79 18 c0 -6 -4 -13
-10 -16 -5 -3 -10 1 -10 9 0 9 5 16 10 16 6 0 10 -4 10 -9z m-15 -209 c-11
-11 -13 6 -6 78 l6 75 3 -74 c2 -40 0 -76 -3 -79z m62 120 c6 -4 13 -18 16
-32 2 -14 2 -19 0 -12 -3 8 -13 12 -23 9 -13 -3 -19 2 -23 19 -4 24 7 30 30
16z m103 -72 c14 -25 9 -222 -5 -227 -6 -2 -20 3 -30 11 -19 14 -19 15 8 25
l29 11 -24 20 -23 19 23 1 c20 0 22 5 22 54 0 76 -30 96 -53 36 -8 -21 -8 19
-1 48 8 28 40 29 54 2z m98 -1 c-10 -5 -18 -16 -18 -24 0 -8 -4 -16 -8 -19 -5
-3 -9 8 -9 24 0 26 4 30 26 30 23 -1 24 -2 9 -11z m5752 -128 c65 -33 49 -96
-32 -131 -96 -41 -214 -39 -268 6 -17 15 -30 36 -30 48 0 40 77 90 145 95 22
2 42 5 45 8 9 9 106 -9 140 -26z m-5640 -22 c0 -5 -4 -9 -10 -9 -5 0 -10 7
-10 16 0 8 5 12 10 9 6 -3 10 -10 10 -16z m5111 5 c28 -5 65 -39 70 -64 9 -48
-35 -82 -130 -100 -95 -18 -220 17 -227 64 -6 44 50 92 131 110 20 4 109 -1
156 -10z m-5204 -16 c-3 -8 -6 -5 -6 6 -1 11 2 17 5 13 3 -3 4 -12 1 -19z m41
-23 c-3 -3 -9 2 -12 12 -6 14 -5 15 5 6 7 -7 10 -15 7 -18z m186 10 c-4 -8 -8
-15 -10 -15 -2 0 -4 7 -4 15 0 8 4 15 10 15 5 0 7 -7 4 -15z m-239 -35 c3 -5
2 -10 -4 -10 -5 0 -13 5 -16 10 -3 6 -2 10 4 10 5 0 13 -4 16 -10z m119 -71
c-3 -5 -10 -7 -15 -3 -5 3 -7 10 -3 15 3 5 10 7 15 3 5 -3 7 -10 3 -15z m76
-29 c8 -5 12 -11 10 -14 -8 -7 -60 6 -60 15 0 12 31 11 50 -1z m1056 -15 c-3
-8 0 -14 7 -12 7 1 11 -3 10 -10 -2 -7 21 -16 55 -23 61 -13 117 -48 127 -80
15 -46 -48 -90 -130 -90 -38 0 -52 -5 -71 -25 -25 -27 -34 -31 -34 -15 0 6 -8
19 -17 29 -33 37 -43 50 -41 58 0 4 -2 20 -6 35 -6 21 -1 36 24 72 17 25 35
46 40 46 6 0 10 7 10 15 0 8 7 15 16 15 10 0 14 -6 10 -15z m551 -39 c11 -1
19 -4 17 -7 -2 -4 9 -9 24 -12 55 -11 68 -92 19 -114 -69 -32 -225 -23 -277
16 -18 13 -26 29 -28 59 l-3 41 48 15 c33 10 69 13 113 9 36 -4 75 -7 87 -7z
m-1015 -136 c25 -12 51 -33 57 -46 6 -13 17 -24 25 -24 7 0 13 -6 13 -12 -1
-7 5 -31 12 -54 13 -39 12 -43 -15 -83 -33 -51 -61 -66 -135 -75 -44 -6 -58
-4 -69 8 -7 9 -18 16 -24 16 -19 0 -106 85 -106 104 0 16 -6 18 -47 12 -27 -3
-79 -9 -118 -12 -105 -8 -115 -11 -115 -37 0 -12 -9 -33 -20 -47 -18 -24 -20
-24 -36 -8 -11 10 -19 38 -22 72 l-4 56 68 0 c68 1 202 15 235 25 9 3 30 27
46 54 24 37 41 52 74 65 57 20 123 15 181 -14z m4488 -614 c0 -3 -4 -8 -10
-11 -5 -3 -10 -1 -10 4 0 6 5 11 10 11 6 0 10 -2 10 -4z m191 -42 c12 -12 18
-27 15 -33 -15 -24 -73 -43 -145 -48 -61 -3 -83 -1 -110 14 -45 23 -48 36 -16
65 23 22 33 24 130 23 93 0 107 -2 126 -21z m-3022 -80 c62 -52 27 -94 -79
-94 -74 0 -132 14 -155 36 -21 21 -19 31 10 59 22 23 32 25 109 25 76 0 87 -2
115 -26z m338 4 c43 -20 44 -62 2 -84 -49 -25 -191 -16 -221 14 -19 18 -20 25
-10 47 7 14 22 30 34 35 30 13 159 5 195 -12z m113 -248 c13 -8 13 -12 -3 -27
-14 -15 -32 -18 -94 -16 -42 2 -85 5 -95 9 -21 6 -24 30 -5 37 22 9 182 7 197
-3z m-1673 -162 c-3 -8 -6 -5 -6 6 -1 11 2 17 5 13 3 -3 4 -12 1 -19z m4617
-39 c52 -24 39 -74 -22 -84 -20 -3 -50 -8 -66 -10 -39 -7 -106 12 -113 32 -3
9 -2 23 4 31 22 35 145 54 197 31z m-293 -25 c47 -43 4 -74 -102 -74 -64 0
-79 3 -95 21 -23 26 -11 49 37 67 44 16 136 8 160 -14z m-2142 -69 c17 -10 13
-53 -6 -63 -51 -27 -185 -21 -203 8 -9 15 -1 48 13 57 32 19 164 18 196 -2z
m-319 2 c34 -17 39 -61 9 -78 -28 -15 -162 -7 -184 11 -20 17 -19 57 3 69 24
15 142 13 172 -2z m123 -100 c10 -25 -12 -42 -50 -38 -14 1 -18 33 -6 44 11
12 51 7 56 -6z m291 -143 c3 -9 6 -19 6 -23 0 -8 -115 -12 -149 -5 -22 5 -23
6 -6 24 24 26 139 29 149 4z m2380 -80 c18 -17 19 -24 8 -42 -20 -31 -149 -43
-176 -16 -23 22 -20 53 7 64 39 15 144 12 161 -6z m-240 -16 c8 -13 8 -23 0
-35 -9 -14 -28 -19 -82 -21 -100 -4 -138 21 -96 63 24 23 162 18 178 -7z
m-2051 -33 c21 -9 22 -38 1 -59 -30 -31 -174 -9 -174 26 1 49 92 67 173 33z
m223 -9 c17 -13 17 -16 4 -30 -14 -14 -51 -19 -113 -17 -29 1 -43 21 -33 46 7
20 114 21 142 1z m-2180 -34 c18 -12 24 -42 14 -63 -9 -16 -22 -19 -73 -19
-90 0 -132 34 -91 74 16 17 129 23 150 8z m202 2 c27 -8 41 -52 21 -65 -21
-13 -123 -11 -137 3 -32 32 -5 68 53 68 22 0 50 -3 63 -6z m3820 -106 c7 -7
12 -22 12 -34 0 -39 -68 -51 -153 -27 -13 3 -17 13 -15 31 2 21 10 28 33 33
51 11 110 10 123 -3z m222 -7 c5 -11 10 -24 10 -29 0 -27 -111 -43 -151 -22
-21 12 -25 40 -7 58 7 7 39 12 75 12 51 0 64 -3 73 -19z m-2092 -33 c18 -15
15 -46 -7 -58 -33 -17 -116 -12 -142 9 l-24 19 25 27 c22 24 29 25 80 19 30
-3 61 -11 68 -16z m184 12 c44 -13 60 -46 32 -67 -25 -18 -128 -17 -147 2 -20
19 -10 54 17 65 29 12 54 12 98 0z"/>
<path d="M1234 11278 c-4 -15 -1 -25 12 -35 27 -20 44 -16 44 10 0 44 -43 64
-56 25z"/>
<path d="M1395 11183 c-13 -33 -6 -176 9 -191 8 -8 18 -12 23 -9 14 9 16 186
2 203 -15 19 -25 18 -34 -3z"/>
<path d="M1124 10595 c-7 -18 3 -35 22 -35 8 0 14 10 14 25 0 27 -27 35 -36
10z"/>
<path d="M1046 11483 c4 -21 13 -47 19 -58 7 -11 18 -44 25 -73 14 -61 30 -77
31 -30 0 18 3 42 6 53 7 26 5 124 -3 136 -3 5 -23 9 -45 9 l-40 0 7 -37z"/>
<path d="M1143 11485 c0 -22 2 -30 4 -17 2 12 2 30 0 40 -3 9 -5 -1 -4 -23z"/>
<path d="M2040 11486 c0 -2 7 -9 15 -16 9 -7 15 -8 15 -2 0 5 -7 12 -15 16 -8
3 -15 4 -15 2z"/>
<path d="M2190 11340 c0 -5 5 -10 11 -10 5 0 7 5 4 10 -3 6 -8 10 -11 10 -2 0
-4 -4 -4 -10z"/>
<path d="M739 9967 c14 -6 34 -28 45 -48 12 -20 37 -63 56 -95 19 -32 36 -67
37 -77 2 -10 10 -29 19 -42 9 -14 12 -25 8 -25 -5 0 -1 -5 9 -11 9 -5 17 -19
17 -29 0 -10 16 -36 35 -57 19 -21 35 -44 35 -50 0 -7 5 -13 10 -13 6 0 10 17
11 38 0 20 4 91 8 156 9 136 7 153 -23 162 -11 4 -72 29 -135 55 -62 27 -123
49 -135 49 -20 0 -20 -1 3 -13z"/>
<path d="M2205 9188 c13 -120 17 -138 26 -133 5 4 9 1 9 -4 0 -6 -4 -11 -10
-11 -5 0 -10 -8 -10 -17 0 -15 2 -16 10 -3 8 12 10 9 10 -12 0 -14 6 -29 13
-31 9 -4 9 -7 -1 -15 -11 -7 -9 -22 9 -78 12 -38 26 -77 30 -86 5 -9 12 -35
15 -58 4 -22 10 -40 13 -40 4 0 15 -16 24 -36 17 -36 37 -38 37 -4 0 36 10 47
38 42 26 -5 40 -12 100 -49 51 -32 93 -43 108 -28 18 17 18 26 1 19 -10 -4
-16 16 -23 82 -10 92 -1 154 23 154 7 0 13 5 13 10 0 6 9 10 20 10 27 0 25 16
-2 25 -20 6 -17 9 20 18 48 11 50 25 6 46 -16 8 -31 17 -34 20 -14 18 -63 42
-76 37 -7 -3 -24 5 -37 17 -26 25 -75 54 -128 77 -20 8 -43 21 -52 28 -19 16
-134 72 -148 72 -6 0 -8 -20 -4 -52z m355 -508 c0 -5 -4 -10 -10 -10 -5 0 -10
5 -10 10 0 6 5 10 10 10 6 0 10 -4 10 -10z"/>
<path d="M8812 9078 c-12 -26 -22 -52 -22 -58 0 -5 -6 -24 -14 -42 -43 -99
-57 -142 -53 -161 3 -18 5 -17 6 6 0 15 5 27 11 27 13 0 40 54 40 80 0 11 6
31 14 43 21 31 48 115 44 135 -2 11 -12 -1 -26 -30z"/>
<path d="M8793 8813 c-10 -15 -14 -16 -21 -4 -7 9 -12 10 -16 2 -4 -6 -2 -11
3 -11 6 0 11 -19 11 -42 0 -37 2 -40 14 -28 12 13 33 100 24 100 -2 0 -8 -8
-15 -17z"/>
<path d="M8810 8740 c0 -11 5 -20 10 -20 6 0 10 9 10 20 0 11 -4 20 -10 20 -5
0 -10 -9 -10 -20z"/>
<path d="M8605 8550 c-4 -12 -15 -20 -28 -20 -18 0 -19 -2 -7 -10 8 -5 11 -10
5 -10 -5 0 1 -6 14 -13 27 -14 61 -83 37 -74 -8 3 -17 0 -19 -8 -4 -9 2 -12
19 -10 14 1 22 0 19 -3 -10 -11 16 -30 35 -25 21 5 28 23 10 23 -5 0 -10 5
-10 11 0 5 3 8 8 6 4 -3 7 28 7 69 1 73 1 73 -25 72 -14 -1 -28 -7 -32 -13 -5
-6 -8 -3 -8 8 0 23 -17 22 -25 -3z"/>
<path d="M2474 8483 c-12 -28 -14 -55 -9 -108 3 -38 8 -98 10 -131 2 -34 10
-77 18 -95 13 -30 15 -32 22 -14 3 11 13 33 22 48 8 16 14 47 12 70 -1 23 1
50 6 60 5 13 1 25 -16 43 l-23 25 22 6 c27 7 30 49 6 99 -22 46 -50 45 -70 -3z"/>
<path d="M1257 8486 c-5 -15 -6 -31 -3 -34 8 -8 18 25 14 45 -3 13 -6 10 -11
-11z"/>
<path d="M1331 8374 c0 -11 3 -14 6 -6 3 7 2 16 -1 19 -3 4 -6 -2 -5 -13z"/>
<path d="M8519 8352 c-1 -9 0 -26 0 -38 1 -12 -9 -35 -23 -52 -31 -36 -32 -48
-5 -55 11 -3 23 -15 26 -26 7 -26 23 -27 23 -2 0 11 5 23 11 27 7 4 9 21 6 40
-3 19 -2 36 1 38 4 3 6 22 4 43 -3 30 -8 39 -23 40 -11 1 -19 -5 -20 -15z"/>
<path d="M1255 8272 c3 -102 13 -126 41 -97 12 11 19 14 22 6 7 -22 19 -1 14
25 -5 25 -6 26 -18 9 -24 -32 -44 -11 -45 47 -1 29 -4 64 -9 78 -4 15 -6 -14
-5 -68z"/>
<path d="M1397 8353 c-12 -12 -7 -22 8 -17 8 4 15 10 15 15 0 11 -14 12 -23 2z"/>
<path d="M2643 8308 c-6 -7 -13 -45 -16 -85 -4 -55 -2 -74 9 -84 18 -14 19
-53 2 -44 -7 4 -2 -3 11 -14 31 -28 37 -27 50 10 25 71 -2 229 -39 229 -4 0
-12 -6 -17 -12z m32 -198 c0 -16 -3 -30 -7 -30 -5 0 -8 14 -8 30 0 17 3 30 8
30 4 0 7 -13 7 -30z"/>
<path d="M2800 8270 c0 -29 3 -50 7 -46 7 7 5 87 -3 95 -2 2 -4 -20 -4 -49z"/>
<path d="M1380 8163 c0 -5 5 -15 10 -23 8 -12 10 -11 10 8 0 12 -4 22 -10 22
-5 0 -10 -3 -10 -7z"/>
<path d="M1441 8134 c0 -11 3 -14 6 -6 3 7 2 16 -1 19 -3 4 -6 -2 -5 -13z"/>
<path d="M8423 8126 c9 -7 17 -19 17 -25 0 -7 5 -9 11 -6 12 8 -17 45 -35 45
-6 0 -3 -7 7 -14z"/>
<path d="M4335 8020 c-82 -4 -167 -5 -187 -3 -53 8 -248 -7 -248 -18 0 -6 8
-9 18 -7 12 2 17 -4 17 -21 0 -13 10 -31 23 -41 12 -10 22 -25 22 -34 0 -9 5
-16 11 -16 6 0 8 7 5 16 -5 13 -1 14 27 8 17 -4 47 -6 65 -6 24 1 32 -3 32
-15 0 -14 2 -14 14 2 8 11 13 22 11 25 -2 3 3 11 11 18 12 11 18 9 38 -13 22
-23 56 -34 56 -17 0 4 7 16 15 26 14 19 15 19 35 -4 11 -13 20 -27 20 -32 0
-4 24 -8 54 -8 49 0 54 2 49 20 -3 11 -9 20 -14 20 -5 0 -9 11 -9 25 0 14 4
25 10 25 5 0 7 -6 4 -14 -3 -7 2 -20 10 -29 9 -9 16 -21 16 -27 0 -7 8 -22 19
-35 26 -35 15 -100 -18 -100 -12 0 -27 -9 -33 -18 -6 -12 -14 -15 -21 -9 -17
13 -67 8 -77 -8 -7 -12 -12 -11 -27 2 -16 14 -21 15 -43 3 -14 -8 -37 -14 -52
-15 -27 0 -41 -20 -15 -20 6 -1 1 -7 -13 -16 l-25 -15 32 6 c18 4 34 2 38 -4
3 -6 31 -11 61 -11 52 0 54 1 44 20 -7 14 -7 20 0 20 5 0 10 -7 10 -15 0 -8 3
-15 8 -16 4 -1 27 -3 51 -5 47 -4 64 -18 55 -46 -6 -21 0 -24 60 -33 35 -6 47
-5 42 4 -4 6 -1 11 8 11 10 0 16 -9 16 -24 0 -14 5 -28 11 -32 6 -3 8 -15 6
-26 -4 -14 -1 -18 8 -14 9 3 12 0 9 -8 -9 -23 12 -27 31 -6 13 14 14 20 5 20
-7 0 0 11 16 25 16 14 23 25 16 25 -7 0 -10 5 -7 10 11 17 45 11 45 -8 0 -9
12 -25 28 -34 15 -10 21 -18 15 -18 -7 0 -13 -7 -13 -15 0 -13 13 -15 75 -12
41 1 75 0 75 -3 0 -12 42 -4 50 10 5 8 9 119 10 247 0 128 5 245 10 259 6 14
10 27 10 30 0 6 -453 2 -625 -6z m-155 -44 c0 -3 -4 -8 -10 -11 -5 -3 -10 -1
-10 4 0 6 5 11 10 11 6 0 10 -2 10 -4z m158 -16 c7 -12 10 -25 7 -30 -3 -5 5
-11 17 -13 17 -3 14 -5 -9 -6 -20 0 -33 4 -33 12 0 6 -3 22 -6 35 -8 28 7 29
24 2z m182 -51 c0 -3 -8 -13 -18 -23 -18 -15 -19 -15 -30 10 -7 14 -10 29 -7
34 5 8 55 -10 55 -21z m-240 -213 c0 -3 -4 -8 -10 -11 -5 -3 -10 -1 -10 4 0 6
5 11 10 11 6 0 10 -2 10 -4z m200 -37 c0 -11 -4 -18 -10 -14 -5 3 -7 12 -3 20
7 21 13 19 13 -6z m247 -81 c-3 -8 -6 -5 -6 6 -1 11 2 17 5 13 3 -3 4 -12 1
-19z m-142 2 c3 -5 1 -10 -4 -10 -6 0 -11 5 -11 10 0 6 2 10 4 10 3 0 8 -4 11
-10z"/>
<path d="M5076 8011 c-9 -14 34 -51 58 -51 20 0 20 0 0 18 -41 37 -52 43 -58
33z"/>
<path d="M8390 8012 c0 -5 7 -9 15 -9 8 0 12 4 9 9 -3 4 -9 8 -15 8 -5 0 -9
-4 -9 -8z"/>
<path d="M3841 7994 c0 -11 3 -14 6 -6 3 7 2 16 -1 19 -3 4 -6 -2 -5 -13z"/>
<path d="M3665 7990 c28 -12 67 -12 60 0 -3 6 -23 10 -43 9 -30 0 -33 -2 -17
-9z"/>
<path d="M3790 7973 c0 -4 5 -15 10 -23 8 -13 10 -13 10 2 0 9 -4 20 -10 23
-5 3 -10 3 -10 -2z"/>
<path d="M3800 7920 c0 -6 4 -10 9 -10 5 0 12 -8 14 -17 4 -14 5 -13 6 3 0 12
-6 24 -14 28 -8 3 -15 1 -15 -4z"/>
<path d="M3708 7895 c-3 -14 -2 -28 2 -30 4 -3 10 9 12 25 5 36 -8 40 -14 5z"/>
<path d="M3820 7846 c0 -14 4 -26 8 -26 11 0 12 39 1 45 -5 4 -9 -5 -9 -19z"/>
<path d="M2628 7838 c-3 -7 -4 -33 -4 -58 1 -40 4 -45 25 -48 23 -4 24 -3 17
49 -4 29 -9 56 -12 61 -8 12 -21 10 -26 -4z"/>
<path d="M3820 7734 c0 -13 35 -33 58 -34 32 0 27 14 -11 28 -38 14 -47 15
-47 6z"/>
<path d="M3933 7725 c-18 -20 -17 -22 15 -17 18 2 35 -2 46 -14 19 -18 86 -28
86 -12 0 5 -15 8 -32 7 -23 -2 -32 1 -30 10 7 32 -62 53 -85 26z"/>
<path d="M3824 7690 c-5 -4 -18 -10 -29 -13 -11 -3 -1 -5 23 -6 23 0 42 3 42
8 0 13 -26 21 -36 11z"/>
<path d="M3945 7680 c-18 -8 -17 -9 8 -9 15 -1 27 4 27 9 0 12 -8 12 -35 0z"/>
<path d="M2427 7650 c-2 -8 -9 -31 -16 -51 -15 -47 -14 -83 4 -154 19 -76 33
-103 57 -111 18 -5 19 -13 15 -89 -6 -94 -3 -100 56 -104 21 -1 61 -6 89 -11
75 -15 115 -13 122 6 3 9 6 38 6 64 0 54 -1 54 -110 75 -72 13 -72 14 -42 40
37 32 20 48 -55 50 -53 2 -58 4 -69 31 -6 16 -17 72 -23 126 -12 102 -25 155
-34 128z"/>
<path d="M4173 7553 c9 -2 23 -2 30 0 6 3 -1 5 -18 5 -16 0 -22 -2 -12 -5z"/>
<path d="M5625 7492 c-145 -2 -172 -5 -182 -19 -22 -28 -17 -166 7 -205 18
-29 18 -34 4 -49 -10 -11 -13 -25 -9 -39 6 -18 12 -20 42 -14 27 5 41 2 65
-16 27 -20 47 -24 147 -28 96 -4 119 -2 129 11 9 11 12 60 10 188 -3 166 -4
174 -23 174 -11 0 -96 -1 -190 -3z"/>
<path d="M1550 7392 c0 -75 -9 -88 -55 -76 -23 6 -23 5 -27 -118 -5 -161 -3
-171 50 -180 65 -11 65 -12 59 -99 l-5 -79 28 0 c32 0 40 -14 40 -75 0 -35 4
-45 20 -50 30 -10 40 2 40 49 0 45 13 66 42 66 16 0 18 10 18 80 l0 80 50 0
50 0 0 129 c0 134 -3 145 -45 153 -17 3 -20 12 -23 75 -2 59 -6 75 -22 83 -10
5 -26 7 -34 4 -16 -6 -21 -19 -30 -88 -7 -49 -18 -61 -44 -47 -14 7 -23 25
-27 49 -15 101 -18 107 -52 110 l-33 3 0 -69z"/>
<path d="M6655 7190 c-3 -5 -1 -10 4 -10 6 0 11 5 11 10 0 6 -2 10 -4 10 -3 0
-8 -4 -11 -10z"/>
<path d="M8144 7145 c-9 -22 5 -36 25 -26 9 5 36 7 59 4 38 -5 42 -4 42 16 0
19 -5 21 -60 21 -44 0 -62 -4 -66 -15z"/>
<path d="M800 7104 c0 -3 7 -12 15 -21 20 -19 32 -9 15 12 -12 15 -30 20 -30
9z"/>
<path d="M8379 7018 c-5 -10 -13 -17 -17 -16 -33 6 -130 -69 -173 -136 -42
-65 -62 -138 -58 -219 1 -29 -1 -59 -5 -65 -4 -7 -1 -12 8 -12 9 0 16 -7 16
-15 0 -8 -5 -15 -11 -15 -8 0 -9 -13 -4 -42 5 -24 9 -70 9 -103 1 -33 6 -69
13 -81 10 -17 9 -25 -1 -40 -8 -11 -16 -31 -18 -44 -1 -14 -11 -26 -20 -28
-16 -3 -18 5 -18 65 -1 90 -17 113 -83 115 -32 0 -54 -5 -66 -16 -13 -12 -41
-18 -86 -20 -57 -3 -70 0 -93 19 -38 31 -91 57 -107 52 -7 -3 -11 -15 -8 -30
4 -21 -1 -29 -26 -41 -17 -9 -33 -16 -36 -16 -3 1 -18 -8 -33 -19 -24 -17 -25
-22 -14 -40 22 -37 15 -42 -48 -39 -55 3 -60 5 -60 26 0 53 -96 88 -119 43
-13 -23 -66 -32 -89 -15 -45 34 -92 0 -92 -67 0 -44 -17 -61 -64 -62 -46 -1
-52 6 -40 52 8 31 7 47 -6 81 -21 53 -44 71 -86 66 -24 -3 -37 1 -53 20 -26
30 -97 34 -131 6 -22 -18 -22 -19 -6 -45 10 -14 14 -32 10 -38 -5 -9 -9 -8
-14 5 -3 10 -10 16 -15 14 -4 -2 -13 17 -19 42 -6 25 -15 44 -21 43 -15 -3
-23 -46 -12 -61 5 -7 7 -15 5 -18 -3 -3 -25 21 -49 52 -55 72 -69 78 -69 27
l0 -38 -21 25 -21 25 6 -34 c5 -30 4 -33 -15 -28 -34 9 -53 -25 -66 -119 -7
-48 -10 -91 -7 -95 6 -11 -37 -12 -53 -1 -10 6 -10 17 -3 43 10 32 20 129 24
228 2 43 -15 64 -35 44 -5 -5 -13 -71 -18 -147 l-9 -139 -53 -106 c-56 -112
-111 -178 -187 -225 -24 -15 -42 -29 -40 -31 2 -2 23 1 47 6 69 15 82 5 21
-15 -63 -21 -92 -42 -45 -32 50 10 219 26 224 20 19 -18 -64 -43 -146 -44 -28
0 -59 -3 -68 -6 -14 -6 -12 -10 12 -25 15 -11 42 -19 58 -20 41 -1 98 -22 103
-39 4 -10 -17 -12 -109 -8 l-114 5 47 -16 c58 -20 118 -77 148 -142 21 -43 22
-52 10 -74 -8 -14 -16 -21 -20 -15 -7 12 -79 -39 -80 -56 0 -13 -35 -31 -78
-39 -49 -10 -68 -56 -83 -206 -6 -68 -12 -131 -11 -139 1 -29 -21 -175 -29
-190 -12 -22 -11 3 6 155 24 206 28 295 16 295 -5 0 -22 -17 -36 -37 l-27 -38
7 45 c12 75 13 102 8 117 -7 19 -25 -7 -64 -94 l-30 -68 4 107 c4 87 9 117 30
162 20 44 23 56 12 56 -33 0 -93 -112 -111 -205 -6 -30 -9 -34 -12 -17 -5 30
-22 28 -22 -3 0 -46 -30 -103 -57 -110 -24 -6 -25 -9 -20 -51 4 -42 -7 -60
-19 -29 -14 35 -20 9 -20 -88 0 -102 -5 -124 -46 -213 -17 -38 -42 -119 -85
-274 -12 -44 -13 -61 -4 -87 9 -24 9 -62 1 -150 -9 -106 -8 -169 6 -343 8
-111 9 -180 1 -180 -5 0 -17 5 -28 10 -12 7 -19 7 -19 1 0 -13 49 -63 74 -76
11 -5 27 -23 36 -40 26 -47 47 -44 70 10 11 25 24 43 30 40 6 -4 10 5 10 20 0
17 5 25 13 22 6 -2 11 -17 10 -33 -2 -16 -7 -85 -13 -154 -5 -69 -14 -174 -20
-235 -6 -60 -8 -176 -5 -257 3 -104 1 -148 -7 -150 -7 -3 -16 -64 -24 -159
-16 -193 -23 -239 -34 -239 -6 0 -6 -9 -1 -22 5 -13 5 -50 0 -83 -5 -33 -12
-143 -14 -245 -3 -102 -8 -201 -10 -220 -3 -19 -7 -98 -9 -175 -3 -77 -8 -239
-11 -360 -4 -121 -11 -225 -16 -231 -13 -16 -2 -39 24 -53 12 -6 69 -20 126
-32 58 -11 120 -27 139 -35 19 -8 37 -12 39 -10 7 7 20 116 15 121 -12 12 -22
3 -22 -19 0 -32 -20 -45 -21 -14 -1 13 -2 34 -3 48 -1 19 3 24 17 22 9 -2 17
2 17 8 0 5 -6 10 -12 10 -9 0 -8 3 2 10 30 19 30 135 1 1330 -3 162 -4 304 -1
314 4 11 3 38 -1 60 -4 22 -3 68 3 102 7 49 6 69 -6 99 -25 58 -60 735 -39
735 5 0 14 20 21 45 7 25 18 45 24 45 10 0 12 -27 10 -112 -4 -123 9 -139 20
-25 16 177 19 207 29 297 6 52 14 104 18 115 9 23 6 249 -4 265 -3 6 3 10 17
10 17 0 28 11 42 41 10 22 20 38 23 36 4 -5 -11 -218 -26 -374 -9 -90 -4 -148
14 -148 5 0 35 54 68 119 64 126 76 133 76 41 0 -31 -2 -35 -9 -20 -5 13 -6 2
-3 -31 7 -66 -24 -134 -62 -134 -14 0 -25 -4 -25 -10 0 -5 14 -10 30 -10 17 0
30 -4 30 -9 0 -5 -12 -8 -26 -8 -24 0 -43 -16 -44 -35 0 -12 28 -10 35 2 3 6
15 10 25 10 11 0 24 8 29 18 8 15 33 21 59 13 1 -1 -4 -11 -12 -23 -7 -13 -17
-50 -20 -83 -4 -33 -13 -78 -21 -102 -8 -23 -16 -57 -19 -75 -6 -46 -34 -154
-45 -175 -24 -48 -30 -75 -36 -153 -6 -99 -22 -496 -30 -785 -3 -110 -10 -346
-15 -525 -14 -464 -14 -998 -1 -1014 8 -10 7 -17 -4 -26 -9 -8 -13 -21 -9 -37
4 -15 0 -30 -10 -42 -16 -18 -16 -20 11 -38 32 -23 111 -53 136 -53 9 0 17 -7
17 -15 0 -8 6 -15 14 -15 7 0 16 -9 19 -20 3 -11 1 -20 -4 -20 -5 0 -9 4 -9 8
0 4 -9 8 -21 8 -16 0 -17 -3 -7 -11 23 -17 50 -66 36 -63 -7 2 -15 11 -18 21
-5 16 -10 15 -52 -17 -26 -20 -49 -45 -53 -56 -4 -11 -10 -18 -14 -15 -5 2 -6
-6 -4 -19 3 -13 0 -27 -7 -31 -6 -4 -73 -9 -148 -12 -75 -2 -153 -9 -172 -14
-19 -5 -48 -9 -65 -9 -41 0 -20 -16 40 -31 189 -44 215 -58 275 -145 51 -74
123 -144 147 -144 7 0 13 -4 13 -10 0 -5 12 -11 28 -11 l27 -1 -30 -8 -30 -8
30 -2 c17 -1 44 -3 60 -5 83 -10 241 -12 252 -3 7 5 41 11 75 13 35 2 50 1 33
-2 -27 -5 -28 -6 -10 -14 19 -8 19 -8 -3 -15 -17 -5 -22 -12 -18 -27 5 -19 2
-20 -72 -13 -42 4 -117 9 -167 11 -95 4 -93 3 55 -30 77 -17 87 -21 78 -30 -2
-3 -19 0 -37 6 -34 12 -48 8 -36 -11 7 -12 43 -10 170 6 27 4 36 3 26 -4 -10
-7 1 -12 38 -17 29 -4 55 -4 58 -1 4 3 -5 6 -20 6 -14 0 -29 5 -32 11 -5 7 4
9 27 5 18 -3 55 -8 81 -11 34 -5 47 -10 44 -20 -5 -10 11 -12 76 -7 100 7 150
7 245 -2 85 -8 101 2 102 64 0 24 7 40 20 50 14 10 16 17 9 26 -8 10 -5 12 10
11 11 0 17 -5 15 -9 -7 -11 10 -10 21 1 6 6 32 3 70 -9 33 -10 72 -21 88 -24
25 -6 27 -10 27 -56 0 -30 -4 -50 -11 -50 -6 0 -9 -7 -5 -15 4 -11 -2 -15 -27
-15 -29 -1 -30 -2 -12 -13 15 -9 212 -13 818 -15 l797 -3 0 2986 c0 2025 -3
2985 -10 2985 -20 0 -88 52 -120 92 -31 38 -33 46 -32 112 2 74 -4 106 -18
106 -5 0 -12 -15 -15 -32 -4 -18 -14 -42 -21 -53 -17 -24 -17 -20 -3 45 9 41
20 60 58 95 26 25 56 62 67 82 10 21 22 40 27 41 16 7 6 50 -18 76 l-25 27 17
72 c10 40 23 76 31 80 11 7 10 12 -4 28 -9 10 -14 27 -11 39 3 11 1 18 -4 14
-5 -3 -9 0 -9 6 0 7 -16 38 -36 71 -43 69 -115 129 -155 129 -15 0 -30 4 -33
9 -3 5 -23 11 -43 14 -21 3 -51 8 -68 11 -16 2 -35 0 -42 -6 -7 -6 -13 -7 -13
-2 0 5 -21 9 -46 9 -33 0 -49 -5 -55 -17z m131 -113 c0 -18 -5 -25 -20 -25
-24 0 -25 8 -3 32 21 23 23 23 23 -7z m-600 -679 c0 -3 -4 -8 -10 -11 -5 -3
-10 -1 -10 4 0 6 5 11 10 11 6 0 10 -2 10 -4z m720 -14 c32 -14 50 -10 -160
-31 -151 -15 -176 -20 -215 -47 -43 -29 -49 -30 -36 -5 6 10 7 22 3 26 -4 3 0
5 8 3 9 -2 14 3 12 14 -1 9 2 19 8 23 6 4 7 -1 3 -11 -6 -15 -4 -15 18 -1 49
33 130 47 234 43 55 -2 111 -9 125 -14z m86 -38 c17 -14 17 -15 1 -10 -10 3
-23 6 -28 6 -5 0 -9 5 -9 10 0 14 13 12 36 -6z m-1514 -30 c-9 -16 -10 -16
-21 4 -8 15 -8 21 2 25 19 7 30 -9 19 -29z m853 27 c7 -12 -52 -54 -65 -46
-15 9 -12 26 8 41 20 16 48 18 57 5z m-306 -78 c0 -52 -11 -99 -41 -185 -7
-20 -24 -32 -69 -48 -33 -13 -61 -21 -63 -19 -1 2 1 47 6 99 5 52 10 115 12
140 2 38 6 46 24 48 17 3 22 -2 22 -17 0 -12 -5 -21 -12 -21 -6 0 -4 -7 5 -18
10 -10 17 -24 17 -30 0 -20 15 -14 44 17 16 16 25 34 21 40 -9 16 4 51 20 51
10 0 13 -16 14 -57z m-848 24 c12 -17 15 -34 9 -74 -12 -96 -40 -81 -48 26 -4
56 -2 71 9 71 8 0 21 -11 30 -23z m59 -193 c0 -14 -4 -23 -9 -20 -5 3 -7 15
-4 26 7 28 13 25 13 -6z m-204 -142 c-3 -5 -26 -9 -51 -11 -31 -1 -45 2 -40 8
3 6 26 11 51 11 25 0 43 -4 40 -8z m41 -90 c-24 -5 -26 -3 -20 36 l5 32 17
-32 c15 -31 15 -33 -2 -36z m104 -53 c41 -17 103 -42 139 -56 36 -13 68 -27
72 -31 11 -12 58 -143 49 -138 -16 10 -32 -21 -25 -48 5 -20 3 -26 -7 -24 -8
2 -13 -3 -11 -12 2 -8 6 -31 8 -50 4 -28 -1 -21 -26 35 -34 75 -74 125 -101
125 -13 0 -16 -10 -15 -58 1 -36 7 -66 16 -77 8 -9 16 -28 18 -42 l3 -25 -27
21 c-15 11 -32 21 -40 21 -7 0 -26 11 -42 25 -17 14 -36 25 -44 25 -8 0 -27
14 -44 31 -24 25 -34 29 -61 24 -17 -3 -34 -2 -37 3 -6 11 -82 26 -110 23 -16
-2 -17 2 -12 25 18 71 34 94 65 94 36 0 57 20 81 76 18 40 41 63 66 64 7 0 45
-14 85 -31z m-261 -251 c0 -18 -2 -20 -9 -8 -6 8 -7 18 -5 22 9 14 14 9 14
-14z m662 -19 c1 -19 7 -39 15 -44 28 -21 34 -85 13 -155 -10 -36 -22 -82 -25
-102 -4 -21 -10 -38 -14 -38 -4 0 -13 21 -20 46 -11 37 -11 56 -2 100 7 30 14
94 16 142 3 100 3 97 11 90 3 -3 6 -21 6 -39z m-1352 -704 c0 -14 -4 -25 -10
-25 -5 0 -10 11 -10 25 0 14 5 25 10 25 6 0 10 -11 10 -25z m1390 -442 c77
-115 170 -209 228 -230 22 -8 21 -9 -14 -78 -25 -50 -34 -77 -30 -97 3 -15 -5
-70 -18 -120 -58 -227 -119 -529 -109 -539 5 -5 36 -20 67 -33 l57 -23 7 -154
c8 -183 7 -324 -3 -436 -5 -59 -3 -116 10 -207 19 -132 18 -144 -14 -296 -26
-125 -41 -302 -42 -497 0 -111 -3 -149 -10 -128 -14 48 -74 487 -124 910 -76
643 -98 819 -156 1245 -34 246 -41 287 -76 425 -14 55 -31 125 -38 155 -6 30
-15 62 -19 70 -5 12 13 21 81 43 49 15 102 36 118 46 17 11 31 20 32 20 1 1
25 -34 53 -76z m-1620 -397 c0 -8 -4 -18 -10 -21 -5 -3 -10 3 -10 14 0 12 5
21 10 21 6 0 10 -6 10 -14z m2618 -1151 c39 -215 55 -324 82 -550 47 -388 49
-397 85 -518 9 -32 14 -66 10 -75 -3 -9 -6 -135 -6 -279 1 -252 11 -386 40
-515 l11 -48 -53 -70 c-36 -48 -57 -68 -69 -66 -10 2 -18 1 -18 -4 0 -9 -224
45 -295 71 -56 21 -145 30 -145 15 0 -5 -2 -7 -4 -5 -3 2 5 36 17 74 20 68 21
89 21 615 l1 545 33 67 c59 118 75 229 52 348 -7 40 -3 62 50 215 32 93 74
202 94 242 20 39 39 86 43 103 3 17 9 28 13 23 3 -4 21 -89 38 -188z m-853
-1512 c-3 -43 -10 -103 -15 -133 -5 -30 -11 -86 -12 -125 -3 -75 -9 -85 -49
-85 -17 0 -39 -13 -60 -35 -19 -19 -40 -35 -48 -35 -8 0 -11 -7 -9 -18 5 -19
-27 -29 -37 -11 -4 5 -11 6 -17 3 -6 -4 -8 1 -3 16 5 15 4 20 -4 16 -6 -4 -11
-13 -11 -21 0 -7 -7 -16 -16 -19 -22 -8 -84 3 -84 16 0 5 -4 7 -10 3 -11 -7
-133 55 -150 76 -3 4 -15 9 -27 13 -13 4 -23 12 -23 17 0 5 -7 9 -16 9 -9 0
-14 6 -11 13 3 8 1 20 -4 28 -6 10 -9 10 -9 2 0 -8 -8 -5 -20 7 -11 11 -27 20
-35 20 -18 0 -18 5 -5 31 6 11 21 19 35 19 14 0 41 16 65 38 40 39 40 40 40
113 0 41 4 80 9 88 7 11 28 12 113 6 175 -15 329 -12 363 7 55 29 57 26 50
-59z m-1295 -447 c0 -2 -7 -7 -16 -10 -8 -3 -12 -2 -9 4 6 10 25 14 25 6z"/>
<path d="M90 7020 c0 -5 5 -10 11 -10 5 0 7 5 4 10 -3 6 -8 10 -11 10 -2 0 -4
-4 -4 -10z"/>
<path d="M6 6832 c-2 -4 -1 -14 3 -21 6 -10 10 -9 14 3 6 16 -8 32 -17 18z"/>
<path d="M92 6819 c2 -6 8 -10 13 -10 5 0 11 4 13 10 2 6 -4 11 -13 11 -9 0
-15 -5 -13 -11z"/>
<path d="M220 6791 c0 -12 5 -21 10 -21 6 0 10 6 10 14 0 8 -4 18 -10 21 -5 3
-10 -3 -10 -14z"/>
<path d="M250 6784 c0 -8 5 -12 10 -9 6 3 10 10 10 16 0 5 -4 9 -10 9 -5 0
-10 -7 -10 -16z"/>
<path d="M428 6793 c6 -2 18 -2 25 0 6 3 1 5 -13 5 -14 0 -19 -2 -12 -5z"/>
<path d="M6168 6792 c-38 -3 -38 -4 -38 -48 0 -24 5 -44 10 -44 6 0 10 -6 10
-14 0 -19 23 -26 83 -26 51 1 51 1 27 16 -23 14 -20 15 50 9 127 -9 188 -20
208 -38 19 -17 21 -17 50 8 16 14 41 25 54 25 22 0 24 4 20 32 -7 46 20 63 62
40 25 -14 52 -16 141 -14 61 2 160 0 220 -3 104 -6 111 -8 112 -28 1 -12 -3
-24 -8 -28 -15 -9 76 -22 100 -14 21 6 29 31 27 90 l-1 40 -545 0 c-300 0
-562 -1 -582 -3z"/>
<path d="M96 6781 c-4 -5 -2 -12 3 -15 5 -4 12 -2 15 3 4 5 2 12 -3 15 -5 4
-12 2 -15 -3z"/>
<path d="M6905 6680 c46 -12 143 -12 125 0 -8 5 -46 9 -85 9 -53 -1 -63 -3
-40 -9z"/>
<path d="M2170 6625 c-83 -45 -114 -79 -134 -148 -19 -67 -20 -104 -1 -182 8
-33 15 -80 15 -105 0 -25 6 -55 13 -67 7 -12 65 -76 130 -142 64 -66 117 -124
117 -130 0 -5 -11 -27 -25 -47 -15 -22 -23 -44 -19 -53 26 -62 35 -303 12
-317 -6 -4 -8 -3 -5 2 6 10 -21 136 -50 234 -41 139 -105 282 -175 393 -22 34
-28 54 -24 72 9 37 -6 30 -31 -13 -21 -37 -80 -84 -218 -172 -115 -74 -215
-257 -215 -394 0 -46 -4 -67 -16 -77 -9 -7 -20 -23 -25 -36 -5 -13 -15 -23
-23 -23 -23 0 -36 -33 -36 -88 0 -45 -2 -50 -26 -56 -15 -4 -29 -4 -33 -1 -3
4 -7 66 -8 138 -1 85 -5 133 -12 135 -7 2 -11 -13 -12 -40 -1 -23 -4 -108 -8
-188 l-6 -145 -29 -3 c-28 -3 -28 -3 -22 35 14 81 19 213 8 213 -6 0 -13 -13
-17 -29 -3 -17 -14 -31 -26 -34 -18 -5 -19 -16 -19 -246 0 -188 3 -241 13
-241 18 0 239 47 258 55 10 3 20 2 23 -3 8 -14 -27 -190 -57 -285 -14 -42 -21
-77 -17 -77 5 0 64 16 132 36 68 20 159 40 203 44 l80 7 -67 1 c-69 2 -111 23
-89 45 15 15 449 117 500 117 26 0 26 7 -3 135 -9 38 -16 71 -16 72 0 2 14 3
31 3 17 0 74 9 127 19 178 36 182 36 199 11 11 -15 22 -20 36 -16 12 3 28 -1
37 -9 20 -18 103 -6 175 26 66 29 68 27 -75 90 -105 46 -158 91 -173 146 -6
25 -21 50 -34 58 -15 10 -23 25 -23 45 0 16 -7 54 -14 85 -8 30 -20 110 -26
178 -13 148 -28 194 -83 244 l-42 38 -6 -40 c-5 -38 -6 -39 -16 -15 -14 34 -1
76 23 72 92 -15 125 -14 139 4 8 11 15 29 15 41 0 12 4 24 9 27 8 5 23 54 25
83 1 6 9 20 19 31 18 19 18 22 1 71 l-18 50 24 26 c16 17 21 29 14 33 -6 4
-14 21 -16 37 -3 17 -12 45 -19 63 -11 26 -11 36 -1 52 35 57 -8 108 -131 154
-116 44 -156 44 -237 1z m235 -171 c32 -21 32 -44 1 -44 -14 0 -30 10 -39 24
-25 37 -4 48 38 20z"/>
<path d="M0 6616 c0 -23 22 -41 34 -29 3 4 6 17 6 30 0 16 -6 23 -20 23 -14 0
-20 -7 -20 -24z"/>
<path d="M76 6625 c-3 -9 -6 -22 -5 -28 0 -7 5 -1 10 12 5 13 8 26 5 28 -2 2
-6 -3 -10 -12z"/>
<path d="M130 6620 c0 -5 4 -10 9 -10 6 0 13 5 16 10 3 6 -1 10 -9 10 -9 0
-16 -4 -16 -10z"/>
<path d="M231 6614 c0 -11 3 -14 6 -6 3 7 2 16 -1 19 -3 4 -6 -2 -5 -13z"/>
<path d="M317 6600 c-3 -13 0 -20 8 -20 8 0 13 9 12 20 -1 11 -4 20 -8 20 -4
0 -9 -9 -12 -20z"/>
<path d="M415 6609 c-10 -15 -3 -19 53 -26 34 -4 57 -2 66 6 8 7 20 10 25 7 5
-4 12 -2 16 4 4 6 -8 10 -29 10 -20 0 -36 -4 -36 -10 0 -16 -60 -12 -66 5 -7
18 -20 19 -29 4z"/>
<path d="M120 6590 c20 -13 43 -13 35 0 -3 6 -16 10 -28 10 -18 0 -19 -2 -7
-10z"/>
<path d="M380 6580 c0 -5 5 -10 10 -10 6 0 10 5 10 10 0 6 -4 10 -10 10 -5 0
-10 -4 -10 -10z"/>
<path d="M4898 6574 c-26 -8 -50 -19 -53 -24 -3 -6 -14 -10 -24 -10 -45 0 -94
-75 -62 -94 5 -3 7 -23 4 -45 -4 -26 0 -46 11 -63 14 -21 15 -33 6 -73 -6 -27
-9 -54 -6 -61 3 -8 -1 -20 -9 -28 -11 -11 -13 -29 -9 -75 7 -63 13 -74 51 -85
17 -6 29 -1 48 20 13 14 22 31 18 37 -3 6 -1 7 5 3 7 -4 12 -2 12 4 0 7 7 9
16 6 9 -4 23 -1 30 5 8 6 55 14 104 17 l90 5 0 28 c0 15 4 30 9 33 5 3 19 43
31 88 30 112 24 180 -21 244 -58 80 -140 102 -251 68z m-28 -261 c0 -10 -4
-14 -8 -8 -4 6 -11 13 -16 18 -5 4 -2 7 7 7 10 0 17 -8 17 -17z m-27 -73 c8
-39 0 -60 -24 -60 -22 0 -26 38 -9 71 15 27 27 24 33 -11z"/>
<path d="M1315 6530 c-3 -5 1 -10 9 -10 9 0 16 5 16 10 0 6 -4 10 -9 10 -6 0
-13 -4 -16 -10z"/>
<path d="M1315 6450 c-3 -5 -2 -10 4 -10 5 0 13 5 16 10 3 6 2 10 -4 10 -5 0
-13 -4 -16 -10z"/>
<path d="M3774 6388 c-42 -19 -64 -95 -57 -199 l6 -74 88 -83 c49 -46 89 -89
89 -96 0 -7 -9 -21 -19 -30 -18 -16 -20 -16 -33 0 -28 37 -135 142 -155 153
-19 10 -23 7 -36 -18 -8 -16 -39 -60 -70 -97 -68 -86 -102 -152 -118 -229 -11
-56 -9 -70 25 -220 40 -178 46 -274 28 -425 -6 -52 -9 -96 -7 -98 3 -4 451
-21 563 -22 l52 0 0 -50 c0 -41 -3 -50 -17 -50 -10 0 -27 -7 -37 -15 -11 -8
-26 -15 -33 -15 -7 0 -42 -13 -76 -30 -35 -16 -70 -30 -78 -30 -7 0 -43 -11
-79 -24 -130 -47 -316 -105 -345 -108 -16 -2 -36 -9 -44 -17 -11 -9 -39 -12
-105 -10 l-91 4 -3 -44 c-2 -24 1 -48 6 -53 5 -5 47 -12 92 -16 53 -4 85 -12
88 -19 2 -7 -2 -15 -10 -17 -41 -13 -50 -17 -46 -22 3 -2 17 0 32 5 24 10 26
8 26 -14 0 -15 -7 -26 -21 -30 -15 -5 -18 -10 -10 -18 8 -8 11 -162 11 -516
-1 -618 -16 -1977 -26 -2234 l-7 -188 59 59 c121 123 491 505 545 563 l56 61
7 96 c3 54 6 314 6 579 0 327 3 484 11 488 5 4 82 1 170 -5 175 -13 239 -9
219 15 -10 12 -6 18 19 32 20 12 31 26 31 40 0 27 -13 32 -75 26 -32 -4 -63 0
-86 10 -51 21 -109 75 -109 101 0 13 -9 31 -19 40 -20 18 -18 44 3 58 6 4 13
94 17 230 4 123 14 273 23 333 l16 110 -25 84 c-13 46 -29 120 -35 165 -6 45
-19 113 -29 153 -20 76 -19 83 11 83 24 0 23 18 -8 202 -17 99 -24 166 -19
194 3 24 8 44 9 44 2 0 20 -7 39 -15 54 -22 100 -19 125 8 12 13 22 29 22 35
0 7 8 20 18 30 18 18 18 19 -16 42 -38 26 -123 33 -144 12 -7 -7 -20 -12 -29
-12 -31 0 -32 22 -3 46 31 25 74 32 74 12 0 -7 5 -5 11 5 16 27 5 43 -32 51
-19 3 -50 18 -71 31 -33 22 -40 35 -64 112 -31 104 -60 186 -73 210 -9 16 -19
39 -61 135 -6 13 -16 31 -22 41 -17 24 6 42 62 51 34 5 40 10 40 30 0 34 26
93 45 100 14 5 14 9 0 42 -8 21 -13 45 -10 54 10 32 -12 112 -39 138 -21 22
-26 23 -26 9 0 -28 -81 -23 -117 7 -31 26 -71 31 -109 14z m231 -665 c30 -74
34 -177 5 -133 -5 8 -10 23 -10 33 0 10 -7 29 -16 43 -12 18 -14 28 -6 36 6 6
8 17 5 24 -8 21 14 17 22 -3z m-85 -1392 c0 -17 5 -33 10 -36 6 -3 10 -37 10
-74 0 -74 -13 -96 -60 -103 -18 -2 -26 -10 -28 -27 -5 -33 -31 -71 -49 -71
-11 0 -13 7 -9 25 7 28 1 30 -34 10 -14 -8 -35 -14 -46 -15 -23 0 -39 24 -27
42 3 7 1 8 -6 4 -8 -5 -11 4 -9 33 2 22 -1 41 -7 43 -6 2 -11 -30 -13 -79 -4
-121 -22 -103 -22 22 0 88 3 107 16 112 9 3 20 0 24 -7 7 -11 13 -10 34 3 14
9 31 14 39 11 8 -3 20 2 27 11 7 8 18 15 26 15 7 0 29 16 48 35 22 22 36 30
40 22 2 -7 5 3 5 21 1 43 31 45 31 3z m-305 -178 c-3 -70 -7 -140 -10 -154 -9
-38 -35 -46 -58 -17 -17 20 -18 34 -12 123 9 118 17 145 45 145 11 0 20 7 20
15 0 8 4 15 9 15 6 0 8 -52 6 -127z m75 95 c0 -21 -3 -29 -10 -22 -5 5 -7 19
-4 32 9 31 14 27 14 -10z m290 -312 l0 -54 -68 -41 c-74 -44 -109 -53 -97 -23
16 36 18 74 4 83 -7 4 -10 11 -6 16 5 4 12 1 16 -6 7 -11 20 -7 64 18 30 17
58 38 61 46 12 33 26 12 26 -39z m-210 -94 c-4 -1 -5 -18 -3 -37 3 -35 -8 -51
-29 -39 -22 14 -83 10 -83 -5 0 -8 -8 -15 -19 -17 -10 -1 -23 -7 -29 -13 -18
-18 15 -13 61 9 48 23 52 24 52 7 0 -12 -30 -28 -77 -42 -13 -3 -23 -11 -23
-17 0 -5 -8 -7 -17 -4 -10 4 -14 4 -10 0 5 -6 -53 -44 -68 -44 -12 0 -4 28 10
34 17 6 20 42 5 51 -6 4 -10 -6 -11 -22 l-1 -28 -9 26 c-6 16 -6 35 0 50 8 19
10 20 10 5 1 -15 4 -16 16 -6 8 7 15 9 15 5 0 -3 25 7 56 24 31 17 60 28 64
26 4 -3 10 5 13 16 7 27 33 19 30 -10 -2 -11 2 -21 7 -21 6 0 11 11 11 25 2
34 3 38 13 54 8 12 11 11 16 -5 4 -10 4 -20 0 -22z"/>
<path d="M3765 4190 c-11 -17 5 -31 19 -17 14 12 12 27 -4 27 -5 0 -12 -4 -15
-10z"/>
<path d="M3700 4183 c0 -5 4 -15 10 -23 11 -18 25 -7 17 15 -6 15 -27 21 -27
8z"/>
<path d="M3841 4174 c0 -11 3 -14 6 -6 3 7 2 16 -1 19 -3 4 -6 -2 -5 -13z"/>
<path d="M3720 4100 c0 -11 7 -20 15 -20 8 0 15 9 15 20 0 11 -7 20 -15 20 -8
0 -15 -9 -15 -20z"/>
<path d="M3760 4109 c0 -5 5 -7 10 -4 6 3 10 8 10 11 0 2 -4 4 -10 4 -5 0 -10
-5 -10 -11z"/>
<path d="M3577 4206 c-24 -35 -31 -83 -23 -140 5 -30 12 -46 21 -46 21 0 26
33 23 130 l-3 84 -18 -28z"/>
<path d="M3566 3695 c4 -8 8 -15 10 -15 2 0 4 7 4 15 0 8 -4 15 -10 15 -5 0
-7 -7 -4 -15z"/>
<path d="M6047 6353 c-30 -69 -40 -158 -34 -286 5 -107 21 -206 32 -195 2 2 0
49 -3 105 -8 116 2 332 18 377 15 43 6 42 -13 -1z"/>
<path d="M5451 6359 c-77 -27 -108 -79 -40 -65 28 5 29 4 29 -34 0 -28 6 -46
20 -57 24 -21 25 -45 3 -79 -15 -24 -18 -25 -29 -9 -8 10 -20 15 -29 11 -15
-5 -14 -9 5 -36 27 -38 56 -58 96 -66 26 -5 35 -1 59 28 15 18 46 42 69 53 40
20 41 21 50 88 10 80 -1 113 -51 157 -28 25 -42 30 -81 29 -26 0 -71 -9 -101
-20z"/>
<path d="M6265 6322 c-24 -32 -47 -80 -50 -104 -1 -10 -9 -26 -18 -36 -9 -10
-17 -23 -17 -29 0 -6 -11 -26 -24 -46 -13 -19 -27 -50 -31 -68 -4 -19 -14 -47
-22 -62 -8 -15 -16 -44 -19 -63 -2 -19 -11 -46 -20 -59 -9 -14 -12 -25 -7 -25
16 0 95 60 132 99 44 48 111 150 111 170 -1 21 -38 -25 -46 -57 -6 -21 -7 -20
-25 13 -15 27 -17 40 -9 55 5 10 10 28 10 39 0 11 9 35 20 53 11 18 20 40 20
49 0 9 7 30 15 45 28 55 14 73 -20 26z"/>
<path d="M5910 6307 c-13 -7 -35 -28 -48 -47 -22 -32 -23 -41 -17 -100 13
-113 13 -113 -24 -132 -43 -21 -64 -12 -91 42 -11 22 -28 40 -36 40 -32 0
-174 -161 -174 -197 0 -10 -19 -47 -41 -82 -37 -55 -43 -61 -52 -45 -17 34
-71 85 -137 132 -92 66 -109 82 -137 126 l-25 38 -58 -4 c-70 -5 -155 -53
-192 -107 -24 -36 -115 -97 -183 -122 -69 -25 -86 -65 -136 -314 -12 -60 -24
-130 -26 -155 -6 -57 -13 -65 -68 -80 -62 -17 -64 -28 -5 -22 42 4 50 2 50
-12 0 -9 -11 -26 -25 -38 -14 -12 -23 -28 -21 -35 3 -7 -4 -17 -14 -23 -16 -9
-20 -21 -20 -70 0 -39 -5 -64 -15 -74 -9 -9 -15 -33 -15 -64 0 -27 -7 -68 -15
-92 -28 -78 3 -153 104 -258 l51 -53 -16 -130 c-11 -86 -13 -134 -7 -140 6 -6
36 -13 67 -16 52 -5 56 -8 56 -32 0 -14 14 -102 31 -196 16 -93 35 -208 41
-255 l11 -84 -89 -83 c-49 -45 -83 -83 -76 -83 18 0 94 41 108 59 6 8 25 16
42 17 28 2 32 -2 51 -55 12 -31 35 -109 51 -174 17 -66 42 -152 55 -192 20
-58 24 -85 19 -132 -3 -32 -1 -78 4 -102 9 -35 8 -49 -4 -65 -8 -11 -14 -36
-14 -56 0 -28 -7 -41 -37 -64 l-36 -29 -74 12 c-68 11 -77 11 -94 -5 -10 -9
-19 -26 -19 -36 0 -27 79 -102 120 -114 83 -24 22 -65 -110 -74 -71 -5 -75 -6
-85 -33 -8 -24 -6 -31 10 -43 16 -12 17 -16 6 -23 -31 -20 -3 -38 71 -45 128
-13 149 -15 352 -20 148 -5 203 -3 214 6 8 7 24 17 36 23 17 9 21 20 22 65 0
30 -6 87 -14 125 -8 39 -13 90 -13 114 1 27 -5 51 -14 61 -13 15 -14 21 -1 51
26 65 50 341 50 589 1 129 -3 252 -7 273 l-8 37 38 -5 c21 -3 44 -8 51 -10 20
-7 102 16 102 28 0 6 -5 25 -11 42 -12 33 -13 32 34 115 20 35 18 51 -24 207
-10 39 -26 114 -34 165 -8 51 -23 118 -32 148 -13 40 -18 87 -18 170 l0 115
42 65 c33 52 47 88 68 180 38 170 59 239 125 407 33 83 60 155 60 160 0 36
128 115 231 142 25 7 58 24 73 38 26 23 26 27 19 86 -19 149 -8 287 44 525 5
18 1 22 -20 22 -14 0 -31 2 -39 5 -7 3 -24 -1 -38 -8z m-572 -2105 c-3 -66
-10 -99 -27 -132 -17 -33 -21 -52 -16 -82 6 -32 3 -44 -13 -61 -11 -12 -23
-32 -27 -44 -3 -13 -10 -23 -15 -23 -13 0 0 208 17 265 32 110 56 165 70 165
13 0 15 -15 11 -88z m-408 -1642 c0 -5 -5 -10 -11 -10 -5 0 -7 5 -4 10 3 6 8
10 11 10 2 0 4 -4 4 -10z"/>
<path d="M6170 6294 c0 -16 -2 -17 -10 -4 -8 12 -10 11 -10 -7 0 -32 17 -37
24 -7 4 15 5 29 1 32 -3 3 -5 -3 -5 -14z"/>
<path d="M270 6273 c-1 -10 -1 -61 -1 -113 0 -52 0 -131 -1 -175 -1 -44 -2
-127 -2 -185 l-1 -105 45 1 c142 3 197 7 211 15 9 5 22 28 28 53 7 29 18 47
30 51 11 3 22 12 25 20 8 23 28 18 63 -15 18 -17 34 -30 37 -30 4 0 6 74 6
165 0 91 -4 165 -8 165 -5 0 -14 -11 -20 -25 -21 -45 -42 -25 -42 41 0 23 -6
37 -16 41 -21 8 -36 -16 -30 -49 5 -25 3 -27 -23 -22 -18 4 -33 0 -43 -10 -15
-14 -17 -13 -30 6 -18 27 -38 16 -38 -22 0 -16 -4 -31 -9 -34 -5 -3 -11 -31
-13 -62 -3 -39 -10 -59 -21 -66 -13 -7 -17 -23 -17 -64 0 -40 -4 -55 -12 -52
-7 3 -14 18 -16 34 -2 16 -8 33 -13 38 -13 14 -11 64 2 68 13 4 14 47 4 208
-4 74 -12 128 -19 132 -6 4 -26 8 -43 8 -25 0 -33 -4 -33 -17z m65 -183 c3 -5
-1 -10 -10 -10 -9 0 -13 5 -10 10 3 6 8 10 10 10 2 0 7 -4 10 -10z m167 -67
c25 -22 24 -75 -2 -91 -18 -11 -20 -10 -20 17 0 16 -3 43 -6 60 -7 35 1 39 28
14z m108 -33 c0 -5 -4 -10 -10 -10 -5 0 -10 5 -10 10 0 6 5 10 10 10 6 0 10
-4 10 -10z m-30 -65 c0 -26 -14 -33 -25 -15 -9 14 1 40 15 40 5 0 10 -11 10
-25z"/>
<path d="M6131 6280 c0 -8 4 -22 9 -30 12 -18 12 -2 0 25 -6 13 -9 15 -9 5z"/>
<path d="M670 6261 c0 -31 19 -73 30 -66 5 3 10 24 10 46 0 32 -3 39 -20 39
-13 0 -20 -7 -20 -19z"/>
<path d="M556 6244 c-4 -9 -4 -19 -1 -22 3 -3 5 0 5 6 0 6 7 9 15 6 11 -5 13
-2 9 10 -8 21 -20 20 -28 0z"/>
<path d="M6061 6079 l0 -164 25 59 c14 33 26 79 27 103 0 27 3 39 8 31 5 -7 9
-8 10 -3 8 69 7 109 -1 123 -9 13 -10 7 -5 -26 3 -29 2 -41 -5 -37 -5 3 -10 2
-10 -4 0 -5 5 -13 10 -16 16 -10 12 -25 -5 -19 -11 5 -15 21 -15 60 0 30 -4
54 -10 54 -5 0 -10 -6 -10 -12 0 -9 -3 -8 -9 1 -6 10 -10 -46 -10 -150z"/>
<path d="M5390 6203 c1 -19 19 -35 34 -30 26 10 19 37 -9 37 -14 0 -25 -3 -25
-7z"/>
<path d="M406 6163 c-5 -18 -9 -68 -7 -91 2 -21 46 -10 45 11 0 9 -1 35 -2 57
-2 42 -26 57 -36 23z"/>
<path d="M1410 6162 c0 -5 7 -15 15 -22 8 -7 15 -8 15 -2 0 5 -7 15 -15 22 -8
7 -15 8 -15 2z"/>
<path d="M1450 6126 c0 -9 5 -16 10 -16 6 0 10 4 10 9 0 6 -4 13 -10 16 -5 3
-10 -1 -10 -9z"/>
<path d="M1660 6100 c-8 -5 -12 -11 -9 -14 2 -3 11 -1 19 4 8 5 12 11 9 14 -2
3 -11 1 -19 -4z"/>
<path d="M95 6073 c-100 -12 -95 -8 -95 -73 0 -32 4 -61 9 -64 5 -4 5 -19 -2
-36 -9 -23 -8 -38 1 -62 8 -21 8 -36 2 -42 -6 -6 -10 -31 -10 -58 l0 -47 48
-1 c60 -1 126 0 128 3 3 3 6 242 5 325 -1 69 3 66 -86 55z"/>
<path d="M1490 5910 c0 -5 4 -10 9 -10 6 0 13 5 16 10 3 6 -1 10 -9 10 -9 0
-16 -4 -16 -10z"/>
<path d="M2849 5780 c-6 -29 -4 -631 3 -649 l9 -25 21 35 c11 18 24 36 29 39
4 3 16 23 25 45 25 60 9 228 -43 453 -14 61 -39 120 -44 102z"/>
<path d="M498 5600 c-20 -4 -73 -6 -117 -6 -69 1 -81 -2 -81 -15 0 -29 25 -39
79 -35 35 3 58 11 68 23 10 13 16 15 19 6 6 -14 70 -17 123 -7 22 5 31 12 29
23 -4 17 -53 22 -120 11z"/>
<path d="M23 5562 c-15 -2 -23 -10 -23 -23 0 -19 5 -20 59 -16 66 5 81 11 81
33 0 14 -48 16 -117 6z"/>
<path d="M4417 5472 c-13 -14 -15 -22 -7 -27 16 -10 33 9 28 30 -3 16 -5 15
-21 -3z"/>
<path d="M619 5460 c-15 -9 -16 -33 -14 -207 1 -109 6 -206 10 -215 8 -20 69
-43 86 -33 8 5 9 63 4 204 -5 108 -8 210 -9 226 -1 26 -5 30 -31 32 -16 2 -37
-2 -46 -7z"/>
<path d="M267 5308 c-4 -68 -7 -203 -7 -302 l0 -178 37 6 c78 14 76 12 71 80
-3 33 -2 70 2 81 6 18 9 17 28 -15 12 -19 24 -47 27 -62 17 -76 55 -32 55 64
0 65 9 95 38 126 14 16 16 100 2 136 -7 19 -17 26 -35 26 -33 0 -45 -31 -45
-116 l0 -65 -32 3 c-31 3 -33 6 -45 63 -7 33 -15 108 -19 168 l-6 107 -33 0
-32 0 -6 -122z"/>
<path d="M0 5236 c0 -9 5 -16 10 -16 6 0 10 4 10 9 0 6 -4 13 -10 16 -5 3 -10
-1 -10 -9z"/>
<path d="M7 5193 c-4 -3 -6 -63 -6 -132 1 -69 4 -115 6 -101 3 14 9 30 14 36
5 6 12 31 15 55 5 34 2 48 -9 58 -12 10 -13 18 -5 42 10 30 0 58 -15 42z"/>
<path d="M3091 5155 c-1 -22 -9 -34 -30 -47 -20 -11 -31 -26 -33 -45 -3 -24
-7 -28 -35 -28 -17 0 -29 3 -27 6 3 5 -24 22 -56 35 -3 2 -12 -1 -19 -5 -10
-6 -9 -12 5 -26 17 -17 17 -17 -13 -11 -25 6 -34 3 -46 -15 -9 -11 -20 -18
-26 -14 -6 3 -11 1 -11 -4 0 -6 -12 -11 -27 -11 -22 0 -25 -2 -13 -10 10 -6
-5 -9 -49 -7 l-65 2 -12 -55 c-7 -30 -13 -60 -14 -66 0 -14 358 -7 376 7 6 5
28 12 50 17 33 7 40 13 44 37 7 42 24 37 28 -6 3 -36 4 -37 55 -42 73 -7 127
2 120 19 -4 11 -9 12 -18 4 -8 -6 -35 -10 -62 -8 -46 3 -48 4 -51 35 -3 26 3
38 25 58 36 32 51 31 65 -2 l12 -28 4 33 c2 18 8 30 13 27 11 -8 12 5 0 23 -7
11 -9 11 -14 -2 -9 -22 -47 -21 -47 2 0 9 -16 26 -37 37 -34 18 -57 47 -82
100 -9 18 -10 16 -10 -10z"/>
<path d="M568 5063 c7 -3 16 -2 19 1 4 3 -2 6 -13 5 -11 0 -14 -3 -6 -6z"/>
<path d="M2415 4990 c-84 -16 -136 -28 -140 -32 -2 -2 -2 -14 2 -26 7 -27 43
-29 135 -7 133 32 136 34 131 55 -4 16 -13 20 -47 19 -22 -1 -59 -5 -81 -9z"/>
<path d="M591 4931 c-27 -38 -27 -41 8 -41 31 0 41 17 33 53 -6 24 -18 21 -41
-12z"/>
<path d="M2408 4863 c7 -3 16 -2 19 1 4 3 -2 6 -13 5 -11 0 -14 -3 -6 -6z"/>
<path d="M2680 4810 c0 -5 10 -10 23 -10 18 0 19 2 7 10 -19 13 -30 13 -30 0z"/>
<path d="M537 4784 c-4 -4 -19 -8 -34 -8 -65 -4 -134 -19 -130 -30 4 -12 63
-14 90 -2 12 6 17 4 17 -6 0 -16 -40 -38 -70 -38 -19 0 -34 -13 -24 -23 5 -5
51 8 91 26 11 5 26 6 32 3 15 -10 53 3 46 15 -4 5 -18 9 -31 9 -33 0 -26 25 7
26 50 1 59 4 59 19 0 15 -40 21 -53 9z"/>
<path d="M3665 4761 c-13 -5 -4 -8 30 -9 32 0 44 3 34 9 -17 10 -37 10 -64 0z"/>
<path d="M2398 4753 c7 -3 16 -2 19 1 4 3 -2 6 -13 5 -11 0 -14 -3 -6 -6z"/>
<path d="M3585 4730 c4 -6 11 -8 16 -5 14 9 11 15 -7 15 -8 0 -12 -5 -9 -10z"/>
<path d="M3628 4723 c7 -3 16 -2 19 1 4 3 -2 6 -13 5 -11 0 -14 -3 -6 -6z"/>
<path d="M3485 4710 c-3 -5 -17 -10 -31 -10 -13 0 -24 -4 -24 -9 0 -10 39 -3
57 11 8 6 15 3 23 -11 7 -14 20 -21 38 -20 l27 2 -27 4 c-30 5 -39 23 -11 23
22 0 14 6 -19 14 -15 3 -30 2 -33 -4z"/>
<path d="M3628 4703 c7 -3 16 -2 19 1 4 3 -2 6 -13 5 -11 0 -14 -3 -6 -6z"/>
<path d="M2100 4690 c-16 -5 14 -8 80 -8 84 0 96 2 60 9 -56 10 -108 9 -140
-1z"/>
<path d="M70 4680 c-8 -5 -27 -10 -42 -10 -23 0 -28 -4 -28 -25 0 -28 7 -30
47 -13 15 6 32 10 36 10 12 -3 21 28 11 38 -5 5 -15 5 -24 0z"/>
<path d="M3468 4673 c7 -3 16 -2 19 1 4 3 -2 6 -13 5 -11 0 -14 -3 -6 -6z"/>
<path d="M2848 4583 c-42 -17 -41 -14 -38 -135 1 -66 1 -67 -32 -84 -18 -9
-81 -36 -141 -60 l-107 -42 6 66 c4 37 10 71 15 76 6 6 9 3 9 -8 0 -10 5 -14
11 -11 6 4 8 13 5 21 -3 7 -1 16 4 19 18 11 10 23 -10 18 -11 -3 -20 -2 -20 1
0 6 43 27 65 31 33 7 54 19 48 28 -4 6 4 8 23 3 21 -5 25 -4 14 4 -12 7 -7 10
20 10 21 0 31 3 24 10 -6 6 -47 -3 -114 -24 l-105 -33 -3 -112 c-2 -90 -5
-111 -17 -111 -8 0 -15 -5 -15 -11 0 -8 -15 -10 -49 -5 -27 4 -136 9 -243 11
-106 3 -272 10 -368 15 -377 21 -361 20 -295 10 217 -32 1027 -57 1057 -32 9
7 38 19 67 27 28 9 79 29 113 45 35 17 68 30 75 30 7 0 36 11 65 24 65 29 217
92 238 99 10 3 7 7 -11 11 -22 6 -95 -15 -201 -59 -15 -6 -17 -2 -13 27 4 38
8 127 6 146 -1 16 -37 14 -83 -5z m22 -133 c0 -5 -5 -10 -11 -10 -5 0 -7 5 -4
10 3 6 8 10 11 10 2 0 4 -4 4 -10z"/>
<path d="M640 4560 c-198 -45 -301 -65 -371 -70 -3 0 -2 -20 4 -45 9 -39 14
-45 36 -45 14 1 44 7 66 15 51 18 62 19 68 1 4 -10 1 -13 -9 -9 -8 3 -45 -2
-82 -11 -37 -9 -104 -25 -149 -36 -45 -11 -94 -20 -108 -20 -37 0 -39 -18 -16
-109 23 -88 27 -136 11 -146 -5 -3 -10 1 -10 9 0 9 -5 15 -10 14 -6 -2 -21 23
-34 55 -14 33 -27 61 -30 65 -10 9 -7 -163 2 -173 14 -16 43 -120 44 -157 1
-18 4 -35 8 -38 3 -3 14 -30 22 -60 9 -30 21 -70 27 -88 5 -18 6 -30 0 -27 -5
3 -6 -1 -3 -9 3 -9 10 -16 15 -16 5 0 9 -7 9 -15 0 -9 9 -41 21 -73 11 -31 24
-77 28 -102 l7 -45 -93 -30 -93 -29 0 -62 0 -62 118 40 c106 35 122 38 167 29
28 -5 51 -8 53 -6 2 2 -4 28 -14 58 -13 42 -15 64 -8 89 10 33 0 105 -25 190
-7 20 -20 74 -30 120 -11 46 -35 146 -55 223 -20 77 -38 149 -40 160 -2 11 -9
40 -16 64 -14 52 -8 71 22 71 13 0 55 9 93 19 152 41 185 37 185 -26 0 -15 12
-68 26 -118 14 -49 32 -121 40 -158 16 -78 23 -95 34 -77 7 12 22 -69 16 -92
-1 -7 -1 -9 2 -5 7 13 40 -68 46 -111 5 -29 4 -32 -3 -12 l-9 25 -1 -27 c-1
-16 3 -28 8 -28 10 0 26 -56 22 -81 -1 -9 5 -22 14 -29 22 -19 18 -31 -9 -24
-21 5 -23 3 -19 -20 3 -14 1 -32 -5 -39 -8 -9 -4 -12 14 -12 18 0 24 5 21 16
-3 12 2 15 22 11 14 -3 33 -10 41 -17 12 -11 35 -5 126 30 61 24 128 47 149
51 26 4 33 9 23 15 -11 7 -10 9 1 9 12 0 12 3 3 12 -7 7 -12 23 -12 37 0 25 0
25 17 4 14 -17 22 -19 56 -11 52 11 62 18 46 29 -10 6 -7 9 11 9 33 0 142 28
154 40 5 5 2 16 -8 25 -17 18 -34 15 -101 -15 -22 -10 -53 -21 -70 -24 -30 -6
-30 -6 -71 96 -23 57 -65 159 -94 228 -28 69 -62 152 -75 185 -13 33 -37 96
-55 140 -17 44 -38 105 -47 135 -26 99 -40 109 -123 90z m104 -135 c10 -33 22
-69 26 -80 16 -43 40 -132 44 -165 l5 -35 -10 35 c-6 19 -20 60 -31 91 l-19
56 -112 -28 c-79 -19 -111 -31 -109 -41 2 -7 11 -40 22 -73 10 -33 26 -91 34
-130 17 -74 61 -224 77 -263 5 -13 9 -33 8 -45 0 -14 -2 -16 -6 -7 -2 8 -8 24
-13 35 -20 43 -50 146 -50 168 0 13 -4 27 -9 33 -5 5 -15 38 -21 74 -7 36 -23
94 -35 130 -13 36 -35 103 -50 150 -14 47 -28 90 -31 96 -5 10 203 63 241 60
15 -1 24 -15 39 -61z m-256 -210 c0 -16 -2 -15 -8 5 -4 14 -8 34 -8 45 0 16 2
15 8 -5 4 -14 8 -34 8 -45z m210 3 c15 -15 16 -38 2 -38 -5 0 -10 10 -11 23 0
18 -2 19 -7 5 -5 -13 -11 -15 -22 -8 -13 9 -13 11 0 20 19 13 24 12 38 -2z
m-38 -72 c1 -18 2 -19 13 -5 12 16 52 35 43 21 -2 -4 -1 -14 4 -22 5 -8 3 -19
-6 -27 -15 -15 -9 -38 7 -28 5 4 9 1 9 -4 0 -6 -4 -11 -10 -11 -5 0 -10 -4
-10 -10 0 -14 33 -13 48 2 9 9 12 8 12 -5 0 -11 11 -20 30 -24 30 -6 52 -23
29 -23 -8 0 -9 -3 0 -14 6 -7 11 -33 10 -58 -1 -25 5 -59 14 -78 19 -36 21
-68 8 -89 -11 -17 -45 0 -61 29 -12 22 -5 44 11 35 5 -4 9 -1 9 4 0 6 -10 11
-23 11 -17 0 -28 10 -41 36 -9 20 -19 34 -22 31 -3 -3 10 -35 30 -72 29 -55
34 -71 25 -88 -11 -19 -9 -20 21 -14 23 5 30 3 27 -6 -5 -15 -31 -21 -65 -12
-20 5 -23 8 -11 16 11 7 10 9 -6 9 -24 0 -57 61 -37 68 15 5 15 27 1 92 -12
56 -30 62 -40 14 l-6 -29 -15 35 c-11 23 -13 41 -7 57 5 13 6 29 3 37 -3 9 3
17 15 21 19 6 19 8 6 21 -16 16 -11 39 6 29 5 -4 9 -2 9 4 0 17 -22 24 -31 10
-9 -15 -22 12 -33 71 l-7 35 21 -24 c11 -13 20 -33 20 -45z m-156 28 c3 -9 6
-23 6 -32 0 -21 -15 -5 -25 26 -7 25 9 31 19 6z m10 -90 c3 -8 2 -12 -4 -9 -6
3 -10 10 -10 16 0 14 7 11 14 -7z m321 -42 c-6 -6 -55 10 -55 18 0 16 35 16
47 0 6 -8 10 -16 8 -18z m-690 -139 c-9 -15 -13 -19 -9 -8 4 11 9 34 13 50 4
25 6 26 9 8 2 -12 -4 -34 -13 -50z m34 -65 c8 -50 11 -132 5 -125 -5 4 -7 24
-5 43 1 19 -3 41 -9 49 -7 8 -10 22 -6 30 7 18 12 19 15 3z m765 -114 c19 -19
20 -38 4 -51 -16 -12 -188 -76 -192 -72 -9 12 -28 70 -24 74 7 8 162 63 180
64 9 0 24 -6 32 -15z m-257 -41 c-3 -10 -5 -4 -5 12 0 17 2 24 5 18 2 -7 2
-21 0 -30z m-447 -38 c4 -5 17 -53 29 -105 12 -52 26 -111 30 -130 5 -19 12
-43 16 -53 7 -16 4 -18 -16 -15 -16 2 -23 9 -21 21 2 9 -4 30 -12 45 -9 15
-29 73 -46 129 -31 101 -31 103 -13 134 17 30 18 30 21 7 2 -13 7 -27 12 -33z
m467 18 c-3 -10 -5 -4 -5 12 0 17 2 24 5 18 2 -7 2 -21 0 -30z m-413 -74 c-3
-5 0 -26 5 -46 9 -34 9 -36 -4 -19 -8 11 -15 29 -15 40 0 12 -3 32 -6 46 -5
24 -5 24 10 6 8 -10 13 -23 10 -27z"/>
<path d="M680 4020 c-12 -8 -10 -9 7 -7 12 2 26 6 29 10 11 11 -19 8 -36 -3z"/>
<path d="M740 3964 c0 -14 3 -14 15 -4 11 9 15 9 15 1 0 -7 5 -9 10 -6 18 11
10 25 -15 25 -16 0 -25 -6 -25 -16z"/>
<path d="M206 3653 c-8 -24 2 -55 15 -47 5 3 6 -1 3 -9 -3 -8 -1 -18 5 -22 16
-9 13 45 -3 74 -13 24 -14 24 -20 4z"/>
<path d="M250 3491 c0 -17 4 -32 8 -35 4 -2 6 11 4 30 -5 42 -12 45 -12 5z"/>
<path d="M1435 4422 c-4 -40 -5 -76 -2 -78 7 -7 20 121 15 138 -3 7 -8 -20
-13 -60z"/>
<path d="M1682 4422 c-19 -3 -23 -9 -20 -35 2 -26 8 -33 30 -35 22 -3 29 2 34
23 8 32 -11 53 -44 47z m32 -46 c-3 -9 -10 -16 -15 -16 -14 0 -11 28 4 33 16
6 19 3 11 -17z"/>
<path d="M1880 4345 c0 -55 -1 -57 -22 -51 -13 3 -99 8 -193 10 -158 4 -161 4
-50 -4 66 -4 191 -13 277 -19 86 -6 248 -12 360 -15 174 -3 184 -3 68 4 -74 4
-154 8 -177 9 l-43 1 0 58 0 58 -110 3 -110 3 0 -57z"/>
<path d="M262 4273 c-24 -8 -42 -16 -40 -18 5 -5 96 20 104 28 11 11 -17 7
-64 -10z"/>
<path d="M330 4210 c-24 -8 -23 -8 8 -9 17 -1 32 4 32 9 0 11 -5 11 -40 0z"/>
<path d="M5421 4204 c0 -11 3 -14 6 -6 3 7 2 16 -1 19 -3 4 -6 -2 -5 -13z"/>
<path d="M253 4193 c9 -2 25 -2 35 0 9 3 1 5 -18 5 -19 0 -27 -2 -17 -5z"/>
<path d="M2654 4156 c-3 -8 -1 -23 5 -33 9 -15 10 -13 9 15 -2 35 -6 39 -14
18z"/>
<path d="M71 4144 c0 -11 3 -14 6 -6 3 7 2 16 -1 19 -3 4 -6 -2 -5 -13z"/>
<path d="M1015 3960 c-3 -5 -1 -10 4 -10 6 0 11 5 11 10 0 6 -2 10 -4 10 -3 0
-8 -4 -11 -10z"/>
<path d="M5997 3950 c-7 -27 -1 -39 12 -24 5 5 5 18 2 28 -7 18 -8 18 -14 -4z"/>
<path d="M10 3912 c0 -5 7 -15 15 -22 8 -7 15 -8 15 -2 0 5 -7 15 -15 22 -8 7
-15 8 -15 2z"/>
<path d="M1148 3793 c7 -3 16 -2 19 1 4 3 -2 6 -13 5 -11 0 -14 -3 -6 -6z"/>
<path d="M582 3740 c0 -14 2 -19 5 -12 2 6 2 18 0 25 -3 6 -5 1 -5 -13z"/>
<path d="M8 3738 c9 -9 15 -9 24 0 9 9 7 12 -12 12 -19 0 -21 -3 -12 -12z"/>
<path d="M0 3719 c0 -4 11 -9 25 -11 16 -3 25 -1 25 7 0 7 -11 12 -25 11 -14
0 -25 -4 -25 -7z"/>
<path d="M450 3654 c0 -3 7 -13 16 -21 12 -13 13 -18 3 -24 -8 -4 -11 -11 -7
-14 8 -8 48 35 48 52 0 8 -12 13 -30 13 -16 0 -30 -3 -30 -6z"/>
<path d="M465 3560 c-3 -5 -1 -10 4 -10 6 0 11 5 11 10 0 6 -2 10 -4 10 -3 0
-8 -4 -11 -10z"/>
<path d="M2315 3537 c-44 -18 -96 -44 -115 -59 -19 -14 -105 -61 -191 -105
-187 -94 -207 -103 -233 -103 -11 0 -42 -15 -70 -34 -81 -53 -295 -171 -366
-201 -36 -15 -96 -35 -135 -45 -38 -10 -61 -18 -50 -19 30 -2 5 -17 -50 -30
-27 -7 -77 -25 -110 -41 -33 -16 -85 -38 -115 -50 -30 -12 -71 -30 -90 -40
-19 -10 -60 -28 -90 -39 -90 -32 -225 -88 -395 -163 l-159 -70 -61 12 c-33 7
-66 14 -73 16 -8 2 -12 -9 -12 -37 0 -45 -1 -44 70 -23 22 7 24 6 12 -9 -8 -9
-29 -22 -48 -29 l-34 -12 0 -1228 0 -1228 988 0 987 0 -4 196 -3 196 28 -6
c16 -3 81 -13 144 -21 63 -9 192 -28 287 -42 141 -20 180 -23 225 -14 122 24
435 32 633 17 l100 -8 67 71 c37 39 63 73 58 76 -6 3 4 21 21 38 17 18 37 47
45 65 8 17 19 32 24 32 6 0 10 6 10 14 0 12 39 60 103 127 9 11 17 21 17 24 0
5 28 38 87 101 l22 24 -24 6 c-49 12 -166 7 -181 -9 -11 -11 -34 -8 -34 4 0 6
7 9 15 6 19 -8 31 13 14 24 -8 5 -23 8 -34 7 -22 -2 -77 30 -73 43 5 14 271
229 284 229 7 0 14 3 16 8 2 6 66 57 103 84 34 24 95 82 95 90 0 5 -10 18 -22
28 -13 10 -20 22 -16 26 4 4 13 2 21 -4 8 -7 18 -7 27 -2 12 8 10 10 -7 10
-13 0 -23 5 -23 11 0 6 -7 17 -15 25 -8 9 -15 26 -15 38 0 34 -31 56 -78 56
-31 0 -42 4 -42 15 0 8 -4 15 -10 15 -5 0 -10 5 -10 10 0 6 12 8 26 6 16 -3
32 2 45 15 15 15 19 16 19 4 0 -8 -4 -15 -10 -15 -5 0 -10 -4 -10 -10 0 -5 11
-10 25 -10 25 0 33 14 15 25 -7 4 -6 13 1 27 10 19 9 20 -11 15 -18 -5 -21 -2
-17 14 8 29 0 23 -28 -22 -20 -31 -29 -38 -39 -30 -7 6 -15 10 -17 8 -2 -1 3
5 11 13 9 8 22 27 30 42 7 16 15 26 18 23 3 -2 -1 -13 -9 -22 -12 -16 -11 -15
8 1 13 10 20 22 17 27 -2 4 12 25 32 46 22 23 34 30 30 19 -5 -16 -4 -17 9 -6
8 7 12 16 9 22 -3 5 4 17 15 27 12 10 21 23 21 28 0 5 16 25 36 44 31 30 64
78 64 94 0 14 -22 1 -52 -31 -80 -87 -134 -138 -142 -136 -5 2 -6 -4 -2 -13 3
-9 2 -13 -4 -10 -6 3 -25 -10 -44 -31 -28 -30 -39 -36 -64 -32 -27 4 -39 -6
-133 -104 -227 -238 -268 -277 -300 -292 -34 -14 -34 -14 -6 -15 23 -1 27 -5
27 -32 0 -24 -3 -30 -16 -25 -9 3 -18 6 -20 6 -2 0 -4 7 -4 15 0 8 -7 15 -15
15 -8 0 -15 -4 -15 -8 0 -18 -172 -187 -188 -185 -10 1 -11 0 -4 -3 17 -8 15
-27 -2 -21 -10 4 -13 1 -9 -9 3 -8 -1 -14 -10 -14 -8 0 -18 -7 -21 -17 -6 -15
-8 -15 -19 1 -12 16 -14 16 -26 2 -8 -9 -23 -16 -34 -16 -24 0 -17 -10 10 -14
10 -2 24 2 32 8 12 9 12 8 2 -11 -13 -25 -31 -29 -49 -11 -9 9 -15 8 -24 -4
-7 -8 -22 -20 -33 -26 -14 -8 -15 -12 -5 -12 21 0 -41 -40 -62 -40 -22 0 -61
-37 -53 -50 3 -5 -3 -15 -15 -22 -11 -7 -20 -17 -20 -22 0 -14 -33 -35 -55
-36 -14 0 -16 -3 -7 -8 15 -10 5 -42 -13 -42 -14 0 -45 -53 -45 -77 0 -7 -9
-13 -20 -13 -24 0 -26 -13 -5 -34 19 -18 19 -26 0 -26 -19 0 -38 -38 -29 -58
11 -26 11 -60 -1 -56 -6 3 -10 -23 -10 -73 l0 -78 -40 1 c-22 0 -154 17 -293
37 -139 20 -264 37 -277 37 -29 0 -27 -85 -23 725 2 529 3 650 7 670 1 6 1
331 1 723 0 466 3 711 9 707 6 -3 28 7 51 24 l40 29 -43 20 c-46 22 -69 15
-47 -15 13 -17 13 -17 -3 -2 -16 14 -24 12 -95 -24 -42 -21 -76 -43 -74 -49 1
-5 -6 -7 -17 -3 -11 3 -22 2 -24 -2 -3 -4 13 -9 35 -9 27 -1 36 1 27 7 -8 5
-9 9 -4 9 6 0 18 -9 28 -20 9 -11 22 -20 29 -20 6 0 -1 13 -16 29 l-27 28 27
7 c27 7 54 -7 40 -21 -4 -4 -11 -1 -16 7 -5 8 -13 11 -17 6 -4 -4 0 -14 10
-21 10 -7 17 -21 15 -30 -4 -24 -381 -225 -395 -211 -3 3 5 10 18 16 21 9 20
9 -8 4 -37 -6 -45 12 -18 39 11 12 12 17 2 20 -9 4 -9 6 1 6 7 1 18 6 25 11 7
6 21 18 32 26 19 15 19 15 -10 9 -28 -6 -29 -5 -10 8 30 21 206 118 340 187
66 34 153 80 194 103 42 23 72 34 69 26 -2 -7 5 -21 16 -31 l21 -17 -30 -25
c-16 -14 -26 -25 -22 -26 26 -1 127 92 127 116 0 8 4 14 9 14 4 0 6 11 3 25
-3 18 1 27 14 31 34 12 119 53 109 53 -5 0 -46 -14 -90 -32z m-74 -84 c11 -15
11 -16 -1 -5 -16 14 -34 16 -26 3 7 -11 -21 -8 -31 4 -4 4 -3 5 4 1 6 -3 14
-2 18 4 9 15 21 12 36 -7z m-194 -161 c8 -5 2 -13 -18 -24 -16 -9 -29 -13 -29
-8 0 5 10 12 21 15 17 6 19 9 8 16 -8 5 -9 9 -4 9 6 0 15 -4 22 -8z m-733
-299 c4 -4 -8 -15 -26 -25 -33 -18 -33 -18 -4 -12 27 7 28 5 24 -22 -3 -16 -9
-37 -13 -47 -6 -16 -4 -17 21 -12 17 3 1 -9 -40 -30 -37 -20 -70 -34 -73 -31
-3 2 12 13 34 24 l38 20 -27 7 c-16 4 -25 11 -22 16 3 5 0 9 -7 9 -7 0 -20 7
-29 15 -19 17 -54 10 -47 -10 3 -7 -5 -12 -24 -12 -16 0 -39 -5 -52 -11 -12
-6 -35 -13 -52 -17 -28 -6 -29 -7 -11 -20 17 -13 17 -14 -9 -21 -20 -5 -23 -9
-13 -15 9 -6 9 -9 1 -9 -6 0 -14 4 -18 10 -3 5 -13 6 -23 3 -9 -3 -14 -3 -10
1 6 7 27 13 58 16 11 1 10 4 -4 9 -23 9 -105 -28 -106 -47 0 -7 -5 -10 -11 -7
-5 4 -22 4 -37 0 -25 -7 -25 -8 -7 -15 14 -6 8 -8 -24 -8 -28 1 -48 -4 -55
-13 -6 -8 -24 -16 -40 -17 -17 -1 -32 -6 -35 -11 -3 -5 -28 -15 -56 -23 -27
-8 -49 -19 -48 -24 1 -5 -6 -10 -15 -10 -9 -1 -34 -4 -54 -9 -26 -5 -38 -4
-38 4 0 6 9 11 20 11 12 0 39 9 62 21 22 11 82 37 132 56 76 29 399 166 486
206 29 13 132 54 141 56 3 0 9 -2 13 -6z m111 -33 c8 -13 -5 -13 -25 0 -13 8
-13 10 2 10 9 0 20 -4 23 -10z m74 -4 c-10 -9 -69 -36 -69 -32 0 7 52 35 64
36 5 0 7 -2 5 -4z m-324 -56 c3 -5 1 -10 -4 -10 -6 0 -11 5 -11 10 0 6 2 10 4
10 3 0 8 -4 11 -10z m215 6 c0 -2 -8 -10 -17 -17 -16 -13 -17 -12 -4 4 13 16
21 21 21 13z m-155 -56 c-27 -12 -43 -12 -25 0 8 5 22 9 30 9 10 0 8 -3 -5 -9z
m-84 -68 c-18 -7 -36 -11 -39 -8 -3 4 1 6 9 6 11 0 11 2 2 8 -8 5 2 8 24 8
l37 0 -33 -14z m-271 -42 c0 -5 -5 -10 -11 -10 -5 0 -7 5 -4 10 3 6 8 10 11
10 2 0 4 -4 4 -10z m180 6 c0 -3 -4 -8 -10 -11 -5 -3 -10 -1 -10 4 0 6 5 11
10 11 6 0 10 -2 10 -4z m-270 -16 c-8 -5 -22 -10 -30 -10 -13 0 -13 1 0 10 8
5 22 10 30 10 13 0 13 -1 0 -10z m218 -15 c-2 -2 -15 -6 -30 -9 -21 -3 -25 -1
-21 11 4 10 8 11 13 3 5 -7 11 -6 21 6 9 11 15 12 17 4 2 -6 2 -13 0 -15z
m-161 -1 c-3 -3 -12 -4 -19 -1 -8 3 -5 6 6 6 11 1 17 -2 13 -5z m86 -1 c-7 -2
-10 -10 -7 -17 5 -13 -7 -20 -71 -41 -11 -3 -3 3 18 15 34 19 37 23 23 33 -14
10 -11 12 16 14 18 0 28 -1 21 -4z m-233 -13 c0 -5 -5 -10 -11 -10 -5 0 -7 5
-4 10 3 6 8 10 11 10 2 0 4 -4 4 -10z m157 -16 c-16 -8 -34 -13 -40 -11 -7 3
-1 9 13 15 38 16 59 13 27 -4z m-232 -34 c3 -6 -1 -7 -9 -4 -18 7 -21 14 -7
14 6 0 13 -4 16 -10z m121 -45 c-15 -8 -33 -15 -40 -15 -16 1 36 29 54 30 8 0
2 -7 -14 -15z m-97 -34 c10 -6 3 -12 -23 -21 -21 -7 -40 -9 -43 -6 -4 3 1 6 9
6 9 0 18 7 22 15 6 17 15 19 35 6z m379 -691 l-4 -80 20 34 c22 39 51 52 61
27 8 -19 7 -249 -1 -262 -16 -27 -24 2 -26 103 -2 67 -7 113 -14 115 -22 7
-41 -62 -43 -167 -1 -58 -6 -109 -11 -114 -16 -16 -22 61 -16 210 5 129 8 168
15 207 0 4 6 7 12 7 7 0 9 -28 7 -80z m-194 -237 c-2 -114 -4 -216 -4 -225 0
-10 -6 -18 -14 -18 -11 0 -13 38 -9 218 4 221 6 247 21 238 5 -3 8 -99 6 -213z
m94 177 c-3 -33 -1 -39 13 -35 28 9 11 -45 -18 -56 -19 -7 -22 -13 -15 -22 6
-6 10 -15 11 -20 0 -4 3 -39 7 -78 5 -53 10 -69 20 -65 10 4 14 -3 14 -23 0
-33 -21 -54 -47 -49 -15 3 -18 17 -21 113 -3 65 -9 113 -15 117 -8 5 -7 15 3
35 7 15 14 39 16 53 3 25 24 70 32 70 2 0 2 -18 0 -40z m2882 -111 c13 -9 12
-10 -2 -5 -12 3 -18 0 -18 -9 0 -8 -4 -15 -8 -15 -4 0 -8 9 -8 20 0 22 13 25
36 9z m-40 -47 c0 -7 -4 -10 -10 -7 -5 3 -10 16 -10 28 0 18 2 19 10 7 5 -8
10 -21 10 -28z m-2995 -20 c-5 -14 -7 -14 -15 -2 -6 10 -10 -49 -10 -163 0
-184 -8 -230 -35 -207 -10 8 -12 17 -5 29 5 10 8 90 7 178 l-2 161 30 28 c26
24 30 25 33 10 2 -9 1 -25 -3 -34z m3030 -41 c-3 -6 -11 -11 -17 -11 -6 0 -6
6 2 15 14 17 26 13 15 -4z m-3141 -17 c10 -27 7 -262 -4 -269 -5 -3 -10 1 -10
10 0 10 -13 -1 -33 -27 -37 -48 -81 -60 -83 -22 -1 26 21 59 31 45 3 -6 12
-11 18 -11 25 0 40 19 43 56 2 22 7 55 10 74 l6 35 -31 -34 c-17 -19 -31 -38
-31 -41 0 -4 -7 -7 -15 -7 -15 0 -22 17 -7 17 11 0 68 73 76 98 6 18 4 22 -14
22 -11 0 -33 -8 -47 -17 -26 -17 -27 -17 -20 0 4 10 7 22 7 25 0 4 10 13 21
21 18 11 23 11 31 -1 7 -9 8 -8 4 5 -3 11 -4 23 0 28 9 15 41 10 48 -7z m3162
-21 c-10 -10 -19 5 -10 18 6 11 8 11 12 0 2 -7 1 -15 -2 -18z m-55 -2 c-8 -5
-11 -16 -8 -25 4 -9 2 -16 -2 -16 -5 0 -11 6 -14 14 -6 15 11 36 28 36 5 0 4
-4 -4 -9z m-163 -25 c-7 -8 -15 -12 -17 -11 -5 6 10 25 20 25 5 0 4 -6 -3 -14z
m5 -31 c-3 -9 -8 -14 -10 -11 -3 3 -2 9 2 15 9 16 15 13 8 -4z m-3143 -35
c-12 -8 -10 -10 8 -10 16 0 22 -6 21 -22 0 -13 -3 -17 -6 -9 -5 11 -7 11 -14
0 -8 -12 -10 -12 -18 0 -7 11 -14 9 -35 -12 -14 -14 -26 -31 -26 -37 0 -7 -10
-24 -21 -38 l-22 -27 7 35 c3 19 11 37 16 38 6 2 10 10 10 18 0 8 4 14 9 14 5
0 7 8 4 19 -3 14 4 22 34 34 39 15 59 13 33 -3z m3207 -10 c-1 -12 -5 -16 -10
-11 -5 5 -6 14 -3 20 11 16 15 13 13 -9z m-3537 -52 c0 -16 -3 -19 -11 -11 -6
6 -8 16 -5 22 11 17 16 13 16 -11z m3500 2 c0 -5 -5 -10 -11 -10 -5 0 -7 5 -4
10 3 6 8 10 11 10 2 0 4 -4 4 -10z m-3156 -71 c-15 -16 -35 -29 -43 -29 -9 0
-1 9 17 20 18 11 31 24 29 28 -3 4 0 18 6 32 l10 25 5 -24 c2 -16 -5 -33 -24
-52z m811 -187 c-7 -37 -51 -64 -67 -40 -22 35 3 178 32 178 6 0 5 -9 -4 -22
-19 -30 -30 -119 -17 -138 9 -13 12 -13 26 0 11 11 16 42 19 100 7 152 10 167
14 60 1 -58 0 -120 -3 -138z m2333 217 c10 -1 7 -4 -8 -8 -32 -10 -43 -4 -27
14 6 7 14 9 15 4 2 -5 11 -9 20 -10z m-3318 -15 c0 -16 -5 -24 -12 -21 -7 2
-12 10 -10 17 2 8 -3 10 -13 7 -8 -4 -15 -4 -15 -1 0 4 32 19 48 23 1 1 2 -11
2 -25z m251 17 c6 10 8 7 6 -8 -1 -17 -4 -19 -14 -11 -7 6 -13 16 -12 22 0 6
3 5 6 -3 5 -11 7 -11 14 0z m3029 -42 c16 -30 8 -31 -13 -3 -10 13 -13 24 -8
24 6 0 15 -9 21 -21z m-3187 -33 c6 -15 -16 -40 -25 -30 -8 7 2 44 12 44 4 0
10 -6 13 -14z m3165 2 c-3 -7 -13 -15 -23 -16 -15 -4 -16 -2 -4 12 17 19 32
21 27 4z m-3433 -39 c-8 -12 14 -41 26 -33 14 8 11 -4 -7 -31 -26 -40 -34 -30
-34 43 1 50 3 63 11 49 5 -9 7 -22 4 -28z m3382 19 c1 -12 -5 -30 -13 -40 -9
-9 -13 -21 -9 -27 4 -7 0 -8 -10 -5 -10 4 -15 2 -13 -6 2 -6 -6 -17 -17 -23
-11 -7 -24 -16 -28 -22 -5 -5 -5 1 -1 15 6 22 5 23 -10 11 -14 -12 -20 -9 -17
11 0 4 -7 4 -17 1 -15 -6 -15 -4 -4 10 8 8 19 14 27 11 7 -3 25 6 40 20 15 14
32 23 38 19 6 -4 7 -1 2 7 -5 8 -1 18 10 27 11 7 19 13 20 13 0 0 1 -10 2 -22z
m-3240 -60 c-2 -13 -4 -3 -4 22 0 25 2 35 4 23 2 -13 2 -33 0 -45z m-17 42 c0
-5 -2 -10 -4 -10 -3 0 -8 5 -11 10 -3 6 -1 10 4 10 6 0 11 -4 11 -10z m102
-22 c-7 -7 -12 -8 -12 -2 0 14 12 26 19 19 2 -3 -1 -11 -7 -17z m127 -5 c-14
-36 -59 -82 -59 -59 0 9 -4 16 -9 16 -14 0 -21 -28 -8 -34 7 -3 1 -4 -13 -3
-16 1 -26 9 -27 22 -2 11 0 14 3 8 8 -18 27 -16 21 1 -4 10 1 13 19 11 14 -1
24 3 24 11 0 7 9 16 20 19 11 3 20 13 20 21 0 8 4 14 10 14 6 0 6 -10 -1 -27z
m2912 4 c-10 -9 -11 -8 -5 6 3 10 9 15 12 12 3 -3 0 -11 -7 -18z m-3171 -2
c-7 -8 -17 -15 -22 -15 -6 0 -5 7 2 15 7 8 17 15 22 15 6 0 5 -7 -2 -15z
m3059 -46 c-44 -39 -51 -27 -8 15 19 19 36 30 38 25 2 -6 -12 -24 -30 -40z
m-2101 -3 c3 -30 -2 -42 -27 -65 -32 -30 -42 -71 -17 -71 8 0 24 12 35 28 12
16 20 21 21 13 0 -8 -12 -27 -26 -43 -21 -21 -31 -25 -45 -17 -11 5 -19 18
-19 29 0 28 21 70 35 70 6 0 17 11 23 25 23 50 10 72 -22 39 -21 -21 -20 -5 1
18 23 26 37 17 41 -26z m-100 -26 c-7 -11 -16 -20 -20 -20 -5 0 -8 -12 -9 -27
0 -27 -1 -27 -11 -6 -9 18 -6 26 18 47 35 31 38 32 22 6z m2226 5 c-6 -16 -24
-21 -24 -7 0 11 11 22 21 22 5 0 6 -7 3 -15z m-3187 -37 c-3 -8 -6 -5 -6 6 -1
11 2 17 5 13 3 -3 4 -12 1 -19z m3120 -8 c-1 -14 -6 -18 -19 -14 -19 6 -25
-10 -8 -21 6 -3 10 -10 10 -16 0 -5 -4 -9 -10 -9 -5 0 -10 7 -10 15 0 18 -12
19 -28 3 -9 -9 -12 -9 -12 0 0 7 4 12 9 12 5 0 12 9 16 19 5 17 18 25 47 30 4
0 6 -8 5 -19z m-2232 -31 c9 -14 -5 -149 -15 -149 -5 0 -6 17 -3 38 5 33 4 35
-10 22 -21 -21 -34 -90 -16 -90 10 0 10 -3 1 -12 -14 -14 -19 -10 -22 17 -6
53 1 78 30 103 32 28 42 69 15 58 -15 -5 -20 5 -8 17 9 10 21 8 28 -4z m-175
-46 c0 -21 -3 -24 -9 -14 -5 8 -7 20 -4 28 8 21 13 15 13 -14z m207 -5 c-3 -7
-5 -2 -5 12 0 14 2 19 5 13 2 -7 2 -19 0 -25z m2113 18 c0 -3 -4 -8 -10 -11
-5 -3 -10 -1 -10 4 0 6 5 11 10 11 6 0 10 -2 10 -4z m-2252 -28 c13 -13 17
-148 5 -148 -5 0 -6 27 -5 60 3 50 1 61 -14 67 -11 4 -22 0 -30 -12 -19 -26
-17 -4 2 23 17 25 25 27 42 10z m149 -40 c-3 -7 -5 -2 -5 12 0 14 2 19 5 13 2
-7 2 -19 0 -25z m-218 -83 c-1 -58 -6 -105 -11 -105 -10 0 -11 194 -1 203 13
14 14 5 12 -98z m-139 71 c0 -3 -4 -8 -10 -11 -5 -3 -10 -1 -10 4 0 6 5 11 10
11 6 0 10 -2 10 -4z m87 -138 c-2 -24 -4 -5 -4 42 0 47 2 66 4 43 2 -24 2 -62
0 -85z m-82 -105 c18 -6 10 -23 -11 -23 -11 0 -14 20 -12 113 l2 112 3 -98 c3
-74 7 -99 18 -104z m2995 142 c10 -12 10 -15 -2 -15 -8 0 -15 7 -15 15 0 8 1
15 2 15 2 0 8 -7 15 -15z m-2812 -30 c-10 -23 -28 -34 -28 -18 0 7 31 43 36
43 2 0 -2 -11 -8 -25z m2609 -41 c-3 -3 -12 -4 -19 -1 -8 3 -5 6 6 6 11 1 17
-2 13 -5z m103 -20 c0 -10 -12 -14 -40 -14 -32 0 -40 4 -40 18 0 14 7 17 40
14 26 -3 40 -9 40 -18z m-3036 -6 c13 -50 6 -62 -14 -23 -24 47 -24 45 -6 45
7 0 16 -10 20 -22z m3136 -8 c0 -5 -4 -10 -10 -10 -5 0 -10 5 -10 10 0 6 5 10
10 10 6 0 10 -4 10 -10z m-260 -13 c0 -7 -5 -18 -12 -25 -9 -9 -9 -12 0 -12 8
0 12 -24 12 -80 0 -44 -4 -80 -9 -80 -12 0 -71 -59 -71 -71 0 -12 -27 -12 -35
1 -3 6 -37 10 -74 10 -78 0 -104 13 -90 48 4 12 15 22 24 22 8 0 15 6 15 13 0
7 14 21 30 31 17 9 28 22 25 27 -4 5 1 9 9 9 9 0 16 5 16 12 0 6 7 4 18 -5 23
-21 42 -22 42 -2 0 8 5 15 10 15 6 0 10 11 10 25 0 16 6 25 15 25 8 0 15 8 15
18 0 10 3 22 7 25 11 12 43 7 43 -6z m-2698 -19 c-7 -7 -12 -8 -12 -2 0 14 12
26 19 19 2 -3 -1 -11 -7 -17z m-316 -21 c23 9 6 -23 -23 -42 -24 -16 -24 -16
-14 4 6 11 11 24 10 28 -3 16 3 28 7 16 3 -7 12 -9 20 -6z m141 -94 c-3 -10
-5 -4 -5 12 0 17 2 24 5 18 2 -7 2 -21 0 -30z m-80 -50 c-3 -10 -5 -4 -5 12 0
17 2 24 5 18 2 -7 2 -21 0 -30z m-203 12 c-4 -8 -8 -15 -10 -15 -2 0 -4 7 -4
15 0 8 4 15 10 15 5 0 7 -7 4 -15z m119 -45 c3 -11 1 -18 -4 -14 -5 3 -9 12
-9 20 0 20 7 17 13 -6z m-80 -101 c-4 -4 -6 18 -3 49 l5 57 3 -49 c2 -27 0
-52 -5 -57z m2976 15 c2 -2 -5 -4 -16 -4 -11 0 -35 -3 -52 -6 -25 -5 -31 -3
-31 10 0 15 7 16 48 10 26 -3 49 -8 51 -10z m-22 -40 c-3 -3 -12 -4 -19 -1 -8
3 -5 6 6 6 11 1 17 -2 13 -5z"/>
<path d="M1220 2910 c0 -5 5 -10 11 -10 5 0 7 5 4 10 -3 6 -8 10 -11 10 -2 0
-4 -4 -4 -10z"/>
<path d="M3445 1220 c-3 -5 -2 -10 4 -10 5 0 13 5 16 10 3 6 2 10 -4 10 -5 0
-13 -4 -16 -10z"/>
<path d="M3265 570 c-3 -5 -1 -10 4 -10 6 0 11 5 11 10 0 6 -2 10 -4 10 -3 0
-8 -4 -11 -10z"/>
<path d="M141 3529 c0 -13 4 -33 9 -44 7 -14 8 -8 3 20 -7 46 -13 59 -12 24z"/>
<path d="M1228 3543 c17 -2 47 -2 65 0 17 2 3 4 -33 4 -36 0 -50 -2 -32 -4z"/>
<path d="M1331 3536 c2 -2 42 -6 89 -9 59 -3 73 -3 45 3 -40 9 -142 13 -134 6z"/>
<path d="M560 3517 c-14 -7 -62 -26 -106 -42 -56 -20 -78 -32 -71 -39 12 -14
80 -20 72 -6 -3 5 7 12 22 16 47 10 49 12 13 14 -33 1 -31 2 24 20 33 10 63
17 67 15 4 -3 9 4 12 15 6 23 1 24 -33 7z"/>
<path d="M540 3470 c0 -5 5 -10 10 -10 6 0 10 5 10 10 0 6 -4 10 -10 10 -5 0
-10 -4 -10 -10z"/>
<path d="M330 3455 c0 -8 4 -15 10 -15 5 0 7 7 4 15 -4 8 -8 15 -10 15 -2 0
-4 -7 -4 -15z"/>
<path d="M485 3429 c-9 -13 4 -31 17 -23 6 4 5 10 -3 16 -9 6 -3 7 18 3 17 -3
33 -3 36 2 3 4 -10 9 -29 10 -18 1 -36 -3 -39 -8z"/>
<path d="M2067 3344 c3 -9 -2 -11 -18 -7 -15 4 -20 3 -15 -5 11 -18 34 -14 45
6 7 14 6 19 -4 19 -7 0 -11 -6 -8 -13z"/>
<path d="M1740 3170 c-13 -9 -13 -11 0 -20 8 -5 20 -10 25 -10 6 0 4 4 -4 9
-7 5 -10 14 -7 20 9 13 6 14 -14 1z"/>
<path d="M1700 3145 c14 -16 0 -21 -16 -5 -6 6 -15 6 -24 0 -11 -7 -11 -10 -2
-10 7 0 10 -4 7 -10 -3 -5 -1 -10 4 -10 6 0 11 4 11 9 0 4 16 7 36 5 35 -2 35
-2 18 17 -21 24 -54 27 -34 4z"/>
<path d="M1745 3105 c-40 -18 -16 -19 26 0 19 8 27 14 19 14 -8 0 -28 -6 -45
-14z"/>
<path d="M600 3061 c0 -14 23 -20 54 -14 20 4 24 8 14 14 -17 11 -68 11 -68 0z"/>
<path d="M1548 3023 c7 -3 16 -2 19 1 4 3 -2 6 -13 5 -11 0 -14 -3 -6 -6z"/>
<path d="M398 3003 c18 -2 45 -2 60 0 15 2 0 4 -33 4 -33 0 -45 -2 -27 -4z"/>
<path d="M548 2993 c17 -2 47 -2 65 0 17 2 3 4 -33 4 -36 0 -50 -2 -32 -4z"/>
<path d="M898 2983 c23 -2 61 -2 85 0 23 2 4 4 -43 4 -47 0 -66 -2 -42 -4z"/>
<path d="M385 2840 c-15 -6 -9 -9 25 -9 34 0 40 3 25 9 -11 5 -22 9 -25 9 -3
0 -14 -4 -25 -9z"/>
<path d="M290 2800 c-11 -7 -4 -10 25 -10 29 0 36 3 25 10 -8 5 -19 10 -25 10
-5 0 -17 -5 -25 -10z"/>
<path d="M2573 2700 c0 -36 2 -50 4 -32 2 17 2 47 0 65 -2 17 -4 3 -4 -33z"/>
<path d="M97 2744 c-8 -8 1 -24 12 -24 4 0 8 7 8 15 0 16 -9 20 -20 9z"/>
<path d="M2567 2501 c-4 -35 -7 -162 -7 -282 0 -139 -4 -219 -10 -219 -5 0
-10 -18 -10 -40 0 -29 -4 -40 -15 -40 -11 0 -15 -11 -15 -40 0 -22 5 -40 10
-40 6 0 10 -33 10 -80 0 -73 -2 -80 -20 -80 -17 0 -20 9 -23 78 -3 63 -4 60
-3 -18 1 -52 7 -104 13 -115 11 -19 13 -18 19 12 13 66 22 19 17 -87 -4 -80
-3 -110 6 -110 8 0 11 -38 11 -128 0 -71 3 -171 8 -223 l7 -94 5 138 c4 99 9
140 18 146 11 6 14 107 17 497 2 269 1 482 -3 474 -4 -8 -11 59 -17 150 -9
150 -11 159 -18 101z m20 -723 c-2 -13 -4 -3 -4 22 0 25 2 35 4 23 2 -13 2
-33 0 -45z"/>
<path d="M2530 2280 c0 -22 5 -40 10 -40 6 0 10 18 10 40 0 22 -4 40 -10 40
-5 0 -10 -18 -10 -40z"/>
<path d="M2530 2120 c0 -22 5 -40 10 -40 6 0 10 18 10 40 0 22 -4 40 -10 40
-5 0 -10 -18 -10 -40z"/>
<path d="M2380 2130 c-13 -9 -13 -11 0 -20 10 -6 16 -6 18 0 7 20 -3 30 -18
20z"/>
<path d="M3815 1780 c-3 -5 -2 -10 4 -10 5 0 13 5 16 10 3 6 2 10 -4 10 -5 0
-13 -4 -16 -10z"/>
<path d="M5550 595 c7 -8 17 -15 22 -15 6 0 5 7 -2 15 -7 8 -17 15 -22 15 -6
0 -5 -7 2 -15z"/>
<path d="M6404 158 c-3 -5 15 -8 40 -8 25 0 46 4 46 9 0 11 -80 9 -86 -1z"/>
<path d="M6898 43 c12 -2 32 -2 45 0 12 2 2 4 -23 4 -25 0 -35 -2 -22 -4z"/>
</g>
</svg>
